<?xml version="1.0" encoding="UTF-8"?>
<svg width="154px" height="61px" viewBox="0 0 154 61" version="1.1" xmlns="http://www.w3.org/2000/svg" xmlns:xlink="http://www.w3.org/1999/xlink">
    <!-- Generator: Sketch 43.2 (39069) - http://www.bohemiancoding.com/sketch -->
    <title>am-water</title>
    <desc>Created with Sketch.</desc>
    <defs></defs>
    <g id="Page-1" stroke="none" stroke-width="1" fill="none" fill-rule="evenodd">
        <g id="am-water" fill-rule="nonzero">
            <path d="M94.9206159,14.2690362 L94.9206159,12.8843285 C94.6134883,13.1268342 93.8016225,13.7355236 92.982614,13.7355236 C91.9469498,13.7355236 90.9089043,12.7655007 90.9089043,12.7655007 L90.8755727,12.7970265 L90.8755727,12.7970265 C90.3903142,13.2318867 89.8098678,13.5420522 89.1827967,13.7015728 L89.1827967,13.7015728 C89.130418,13.7015728 89.0732778,13.7209733 89.0161381,13.7282485 L89.0161381,13.7282485 L88.8470986,13.7282485 C87.811434,13.7282485 86.7757695,12.7582256 86.7757695,12.7582256 L86.7757695,12.7582256 C86.7757695,12.7582256 85.7401049,13.7282485 84.7020595,13.7282485 C84.2314343,13.70396 83.7748138,13.556998 83.3759327,13.3014384 C83.1461114,13.1596847 82.9436009,12.9764233 82.7783424,12.7606506 C82.6144684,12.5532822 82.4886515,12.3175122 82.4069317,12.0646592 L82.4069317,12.0646592 L78.654731,0 L74.4454094,13.5075682 L60.5317919,13.410566 L71.8431533,21.6557602 L67.4552689,35.100277 L78.654731,26.7071542 L89.84467,35.1124022 L85.9162869,23.0695685 C85.5345867,23.2784999 85.1112282,23.3962566 84.6782512,23.4139266 C83.6425866,23.4139266 82.6045412,22.5287807 82.6045412,22.5287807 C82.6045412,22.5287807 81.5688767,23.4139266 80.5308314,23.4139266 C79.492786,23.4139266 78.4571214,22.4439037 78.4571214,22.4439037 L78.4571214,22.5239306 L78.4571214,20.9476435 L78.4571214,20.9476435 C78.4571214,20.9476435 79.4951668,21.9176663 80.5308314,21.9176663 C81.5664959,21.9176663 82.6045412,20.9476435 82.6045412,20.9476435 C82.6045412,20.9476435 83.6425866,21.9176663 84.6782512,21.9176663 C85.5829696,21.9176663 86.4900689,21.1901492 86.7043444,20.9937196 L86.7043444,19.3204302 C86.4829264,19.4950343 85.5829696,20.1643501 84.680632,20.1643501 C83.6425866,20.1643501 82.6069221,19.2767792 82.6069221,19.2767792 C82.6069221,19.2767792 81.5688767,20.1643501 80.5332121,20.1643501 C79.4975476,20.1643501 78.4595022,19.1943272 78.4595022,19.1943272 L78.4595022,19.2743541 L78.4595022,17.698067 L78.4595022,17.698067 C78.4595022,17.698067 79.4951668,18.6680898 80.5332121,18.6680898 C81.5712576,18.6680898 82.6069221,17.698067 82.6069221,17.698067 C82.6069221,17.698067 83.6402057,18.6680898 84.680632,18.6680898 C85.7210582,18.6680898 86.7567228,17.698067 86.7567228,17.698067 L86.7567228,17.698067 C86.7567228,17.698067 87.7900064,18.6680898 88.825671,18.6680898 C88.8819763,18.6711932 88.9384052,18.6711932 88.9947105,18.6680898 L88.9947105,18.6680898 C89.0518504,18.6680898 89.1066103,18.6559645 89.1637496,18.6438393 L89.1637496,18.6438393 C89.4886451,18.5756789 89.8005886,18.45448 90.0875155,18.2849308 L90.8398598,17.7344428 L90.8398598,16.0369028 C90.3477773,16.4260076 89.7794577,16.7030406 89.1732736,16.8492969 L89.1732736,16.8492969 C89.1161334,16.8492969 89.0613744,16.8686974 89.0042339,16.8735475 L89.0042339,16.8735475 L88.8375751,16.8735475 L88.8375751,16.8735475 C87.8019106,16.8735475 86.7638653,15.9859766 86.7638653,15.9859766 C86.7638653,15.9859766 85.7258199,16.8735475 84.6877745,16.8735475 C83.6497292,16.8735475 82.6140646,15.9859766 82.6140646,15.9859766 C82.6140646,15.9859766 81.5760192,16.8735475 80.5403547,16.8735475 C79.5046901,16.8735475 78.4666447,15.9035246 78.4666447,15.9035246 L78.4666447,15.9835516 L78.4666447,14.4072645 L78.4666447,14.4072645 L78.4666447,14.4533405 L78.4666447,14.4096895 C78.4666447,14.3878639 79.507071,15.3797123 80.5403547,15.3797123 C81.0008707,15.3561796 81.4480569,15.2143598 81.8402922,14.9674526 C82.1148489,14.8219004 82.3754877,14.650597 82.6188263,14.4557656 C82.8421875,14.6388723 83.0812299,14.8011937 83.3330777,14.940777 C83.7395382,15.2051734 84.2062021,15.358048 84.6877745,15.3845624 C85.1472995,15.361567 85.5936539,15.2205855 85.9853313,14.9747278 C86.2550907,14.8277119 86.510929,14.6556089 86.7495802,14.4606157 C86.9871084,14.6512928 87.2413402,14.8193286 87.5090675,14.9626025 C87.90423,15.2140989 88.3556111,15.3592877 88.8209093,15.3845624 L88.9899488,15.3845624 L88.9899488,15.3845624 L89.1589881,15.3603119 L89.1589881,15.3603119 C89.5548598,15.273206 89.9317031,15.112929 90.2708396,14.8874257 C90.4869808,14.7641039 90.693883,14.6246879 90.8898573,14.4703159 C91.1136389,14.6528388 91.3526291,14.8151247 91.6041093,14.9553273 C92.0085382,15.2177267 92.4727993,15.3689494 92.9516636,15.3942627 C93.3948258,15.3737489 93.8260124,15.2412402 94.2063648,15.0086786 C94.4458081,14.8844731 94.6751016,14.7409359 94.8920467,14.5794435 L94.8920467,14.5430676 L94.8920467,14.5430676 L94.8920467,14.2860115 L94.9206159,14.2690362 Z" id="Star" fill="#FFFFFF"></path>
            <g id="American-Water" transform="translate(0.000000, 46.289017)" fill="#AD073D">
                <g id="Group">
                    <path d="M6.11780139,0.695829726 C6.32858491,0.106055832 6.39969261,-1.13686838e-14 6.5038146,-1.13686838e-14 C6.60793658,-1.13686838e-14 6.67904427,0.0879487386 6.8898278,0.644095174 C7.14378386,1.3218178 9.90428621,8.69657821 10.9734412,11.4100555 C11.6057918,12.9983063 12.1137039,13.285433 12.4844797,13.3914888 C12.7111491,13.4646175 12.9476331,13.5012725 13.1853985,13.5001314 C13.2895204,13.5001314 13.3606281,13.5156517 13.3606281,13.6087739 C13.3606281,13.7018961 13.2031753,13.7510439 13.0101687,13.7510439 C12.7562127,13.7510439 11.4661159,13.7510439 10.2572851,13.7148298 C9.92460264,13.6993094 9.73159604,13.6993094 9.73159604,13.5880802 C9.73159604,13.5182385 9.78492686,13.4820243 9.85349496,13.4665039 C9.92206315,13.4509836 10.0642785,13.2699126 9.96015652,12.9827858 L8.32975864,8.58534893 C8.30784177,8.51672031 8.24300625,8.47198373 8.17230588,8.47670637 L4.39090021,8.47670637 C4.30455515,8.47670637 4.25376394,8.53361437 4.21821009,8.62156311 L3.1744507,11.7799575 C3.02697484,12.1617248 2.94121123,12.5653118 2.92049464,12.9750256 C2.92049464,13.3319941 3.28873092,13.4923712 3.58839907,13.4923712 L3.76108919,13.4923712 C3.88552766,13.4923712 3.93631887,13.5285854 3.93631887,13.6010137 C3.93631887,13.6734421 3.83219689,13.7432838 3.68236281,13.7432838 C3.26079576,13.7432838 2.50654627,13.6915492 2.31607923,13.6915492 C2.12561219,13.6915492 1.15803961,13.7432838 0.332682434,13.7432838 C0.104121983,13.7432838 3.88430029e-14,13.7070696 3.88430029e-14,13.6010137 C3.88430029e-14,13.494958 0.0685681351,13.4923712 0.157452755,13.4923712 C0.246337375,13.4923712 0.525689036,13.4716773 0.665364866,13.456157 C1.47040557,13.3475144 1.82340448,12.6672051 2.13577044,11.7773708 L6.11780139,0.695829726 Z M7.94628499,7.83778465 C8.03263005,7.83778465 8.03263005,7.78346337 8.01739269,7.71362173 L6.35144096,2.88937474 C6.26255634,2.63070197 6.17621129,2.63070197 6.0974849,2.88937474 L4.55343208,7.71362173 C4.5204178,7.80157046 4.55343208,7.83778465 4.60676285,7.83778465 L7.94628499,7.83778465 Z" id="Shape"></path>
                    <path d="M26.6349112,11.7799575 C26.6857024,12.3154102 26.7923639,13.1354028 27.4221749,13.3526879 C27.7463952,13.4528951 28.0839943,13.5008971 28.4227618,13.494958 C28.4938695,13.494958 28.5446607,13.5311721 28.5446607,13.6010137 C28.5446607,13.6708554 28.4049849,13.7432838 28.2297552,13.7432838 C27.8767562,13.7432838 26.1600133,13.7070696 25.60131,13.6553351 C25.2330738,13.6165341 25.161966,13.5647995 25.161966,13.494958 C25.1631722,13.4330555 25.2064799,13.3803362 25.266088,13.3682083 C25.3549726,13.3526879 25.3727495,13.1095355 25.3371957,12.8327556 L24.6007231,5.15276139 L24.5651693,5.15276139 L20.8472527,12.9129442 C20.5323471,13.5725597 20.4460021,13.7174165 20.3037867,13.7174165 C20.1615713,13.7174165 20.0752263,13.5751465 19.7780976,13.0215868 C19.3743076,12.2714358 18.3559437,10.3262166 17.9699305,9.50363723 C17.5153492,8.54137456 16.2709645,5.98568768 16.0068502,5.36487306 L15.9382821,5.36487306 L15.3414853,12.222288 C15.3237084,12.4550934 15.3237084,12.7396334 15.3237084,12.9983063 C15.3197803,13.2161057 15.4793846,13.4010975 15.6919447,13.4251163 C15.8867589,13.4787564 16.0870363,13.5091389 16.2887414,13.5156517 C16.3420722,13.5156517 16.4131799,13.5673863 16.4131799,13.6217076 C16.4131799,13.7277634 16.3090579,13.7639776 16.1312887,13.7639776 C15.5522689,13.7639776 14.8183359,13.7148298 14.6938974,13.7148298 C14.569459,13.7148298 13.817749,13.7639776 13.396182,13.7639776 C13.2412688,13.7639776 13.1422259,13.7277634 13.1422259,13.6217076 C13.1422259,13.5647995 13.2133336,13.5156517 13.2996787,13.5156517 C13.4530748,13.5079939 13.6057925,13.489846 13.7567995,13.4613305 C14.2647116,13.370795 14.279949,12.8172353 14.3535963,12.2481553 L15.4735425,2.33581503 C15.493859,2.17543792 15.5624271,2.07714227 15.6513117,2.07714227 C15.7924144,2.08169937 15.9168259,2.17265311 15.9662172,2.30736103 L20.6288504,11.7359831 L25.1187935,2.32288139 C25.1873617,2.18061137 25.2584693,2.06420863 25.3727495,2.06420863 C25.4870298,2.06420863 25.5657561,2.18578483 25.60131,2.47291159 L26.6349112,11.7799575 Z" id="Shape"></path>
                    <path d="M30.4950432,6.66082359 C30.4950432,4.30172801 30.4950432,3.87491796 30.4594894,3.39119989 C30.4239355,2.90748183 30.3375904,2.61518161 29.8296783,2.55051342 C29.7052399,2.53499306 29.4462047,2.51688596 29.3014498,2.51688596 C29.2376175,2.50518999 29.1884196,2.45299042 29.1795508,2.38754958 C29.1795508,2.29960084 29.2506585,2.26597339 29.4335069,2.26597339 C30.1344256,2.26597339 31.1350125,2.30218757 31.2111993,2.30218757 C31.2873861,2.30218757 34.5405631,2.32029466 34.8935621,2.30218757 C35.1276499,2.28475696 35.3607345,2.255404 35.5919413,2.21423883 C35.6630489,2.2013052 35.731617,2.14439719 35.8027248,2.14439719 C35.8738325,2.14439719 35.8712929,2.21423883 35.8712929,2.2866672 C35.8712929,2.35909557 35.7849479,2.57120724 35.7468544,3.00060403 C35.7290776,3.14287404 35.6960632,3.8231834 35.6605094,4.0016676 C35.6427324,4.07409598 35.5894017,4.15945799 35.5208336,4.15945799 C35.4522654,4.15945799 35.3963951,4.09220307 35.3963951,3.96545342 C35.397054,3.78416443 35.3678677,3.6040458 35.3100501,3.43258753 C35.2059281,3.17391477 35.056094,3.07561913 34.2078808,2.96697657 C33.9539247,2.93076237 32.1533762,2.91265529 31.9781466,2.91265529 C31.9095785,2.91265529 31.8918015,2.96697657 31.8918015,3.0730324 L31.8918015,7.1962762 C31.8918015,7.30233203 31.8918015,7.35924004 31.9781466,7.35924004 C32.1711532,7.35924004 34.2078808,7.35924004 34.5558005,7.32302586 C34.9037203,7.28681167 35.1525972,7.2712913 35.3176687,7.10832746 C35.4243302,7.00227163 35.4928983,6.91173616 35.5462292,6.91173616 C35.5995599,6.91173616 35.6325742,6.94795036 35.6325742,7.03589909 C35.5780232,7.31385025 35.537338,7.59443902 35.5106753,7.87658556 C35.4751215,8.17923269 35.4421072,8.75089949 35.4421072,8.85695533 C35.4421072,8.96301115 35.4065533,9.14408212 35.3024313,9.14408212 C35.1983093,9.14408212 35.1983093,9.0897608 35.1983093,9.00181203 C35.2061227,8.83250447 35.1828691,8.66319746 35.1297412,8.50257364 C35.0764104,8.28787526 34.9367346,8.10939105 34.3373983,8.03696267 C33.9183708,7.9826414 32.2701961,7.9645343 32.0060817,7.9645343 C31.9773482,7.96008675 31.9482504,7.96981962 31.9276996,7.9907522 C31.9071487,8.01168477 31.8975933,8.041323 31.9019597,8.07059013 L31.9019597,9.33808669 C31.9019597,9.85543216 31.8841828,11.6247538 31.9019597,11.9248143 C31.9375136,12.9439849 32.2194048,13.1405763 33.7431412,13.1405763 C34.1469313,13.1405763 34.8834038,13.1405763 35.287194,12.9801992 C35.6909841,12.819822 35.9017676,12.5352819 35.9881127,11.9248143 C36.0236666,11.7489168 36.0566809,11.6920087 36.1455655,11.6920087 C36.2344501,11.6920087 36.252227,11.8161717 36.252227,11.9248143 C36.2098408,12.4165871 36.1394612,12.9054387 36.0414435,13.3889021 C35.9373215,13.7820847 35.7874874,13.7820847 35.183072,13.7820847 C34.0250324,13.7820847 33.1311071,13.7458705 32.501296,13.7303502 C31.871485,13.7148298 31.4473784,13.6967227 31.2315157,13.6967227 C31.195962,13.6967227 30.8962938,13.6967227 30.5636113,13.7122431 C30.2309289,13.7277634 29.9134839,13.7484573 29.669686,13.7484573 C29.5122333,13.7484573 29.41573,13.7122431 29.41573,13.6217076 C29.4149975,13.5881003 29.4279589,13.555684 29.4515347,13.5321604 C29.4751104,13.5086369 29.507196,13.4961059 29.5401685,13.4975446 C29.6988478,13.4825926 29.8565581,13.4584103 30.0125267,13.4251163 C30.3096553,13.370795 30.3477487,13.0681478 30.4137773,12.620644 C30.5029609,11.5281088 30.5334811,10.4314267 30.5052014,9.33549994 L30.4950432,6.66082359 Z" id="Shape"></path>
                    <path d="M39.4165194,6.66082359 C39.4165194,4.30172801 39.4165194,3.87491796 39.3809656,3.39119989 C39.3454118,2.90748183 39.2590667,2.61518161 38.7511546,2.55051342 C38.6267161,2.53499306 38.3626018,2.51688596 38.222926,2.51688596 C38.1594911,2.50625886 38.1101504,2.45495471 38.1010271,2.39013631 C38.1010271,2.30218757 38.1695952,2.26856011 38.3549831,2.26856011 C39.0584414,2.26856011 40.0920426,2.3047743 40.1783876,2.3047743 C40.3383799,2.3047743 41.6360953,2.26856011 42.1059141,2.26856011 C43.0861844,2.26856011 44.1756559,2.35909557 44.9832362,2.92817566 C45.6330563,3.41382384 46.0273588,4.17700835 46.0523912,4.99755773 C46.0523912,6.12278424 45.5978099,7.21179657 44.157879,8.46377273 C45.4276593,10.0701306 46.4942748,11.4436829 47.3882001,12.3930119 C48.2110176,13.2492188 48.7189298,13.3914888 49.1024035,13.4458101 C49.28228,13.4816677 49.4651201,13.4998581 49.6484089,13.5001314 C49.7195411,13.4983429 49.7802005,13.5522653 49.7880848,13.6242943 C49.7880848,13.7148298 49.7017397,13.7510439 49.4198485,13.7510439 L48.4573551,13.7510439 C47.5812067,13.7510439 47.1875748,13.6630952 46.8091802,13.4483968 C46.1412758,13.0888417 45.5800329,12.3567978 44.7038846,11.2134642 C44.0562966,10.3934715 43.3731548,9.40275486 43.0379328,8.99922536 C42.9873667,8.93448919 42.907956,8.90038084 42.8271493,8.90868992 L40.864069,8.87247569 C40.7955009,8.87247569 40.759947,8.90868992 40.759947,8.99663861 L40.759947,9.35360705 C40.759947,10.8202816 40.759947,11.9972426 40.8285152,12.620644 C40.8818459,13.0681478 40.9681909,13.3552746 41.4430887,13.4251163 C41.6698993,13.4641259 41.8989273,13.4883181 42.1287701,13.4975446 C42.1620396,13.4930815 42.1954314,13.504826 42.2189085,13.529248 C42.2423857,13.55367 42.2532106,13.5879217 42.2481294,13.6217076 C42.2481294,13.6967227 42.1795613,13.7484573 41.9941734,13.7484573 C41.1535789,13.7484573 40.170769,13.6967227 40.0996612,13.6967227 C40.0818844,13.6967227 39.0482832,13.7484573 38.5759249,13.7484573 C38.4184721,13.7484573 38.3219689,13.7122431 38.3219689,13.6217076 C38.3212688,13.5885641 38.3338868,13.5565668 38.3569008,13.5331254 C38.3799148,13.5096839 38.4113286,13.4968317 38.4438678,13.4975446 C38.6051933,13.491901 38.7653667,13.4676023 38.9213052,13.4251163 C39.2184338,13.3552746 39.2539876,13.0681478 39.3225557,12.620644 C39.4079414,11.5278995 39.436763,10.4313326 39.4089008,9.33549994 L39.4165194,6.66082359 Z M40.7497888,7.95418739 C40.7467974,8.03413246 40.7866743,8.10942335 40.8539107,8.15077869 C41.0824712,8.27752834 41.869735,8.38358417 42.5554163,8.38358417 C42.958188,8.41799087 43.3617823,8.3278395 43.7134559,8.12491141 C44.239145,7.767943 44.6429351,6.96347072 44.6429351,5.79685657 C44.6429351,3.90595869 43.6271109,2.81435964 41.9814756,2.81435964 C41.6114881,2.81258904 41.2419911,2.84200566 40.8767667,2.90230837 C40.803748,2.93177952 40.755545,3.0033811 40.7548679,3.0833793 L40.7497888,7.95418739 Z" id="Shape"></path>
                    <path d="M52.0584519,9.33808669 C52.0584519,10.8021745 52.0584519,11.9998294 52.1295597,12.6232307 C52.1828904,13.0707346 52.2336816,13.3578614 52.6908025,13.427703 C52.9228372,13.4658896 53.1568848,13.4900746 53.3917212,13.5001314 C53.4246936,13.4986927 53.4567793,13.5112236 53.480355,13.5347472 C53.5039307,13.5582707 53.5168921,13.590687 53.5161891,13.6242943 C53.5161891,13.6993094 53.445052,13.7510439 53.2622037,13.7510439 C52.4038321,13.7510439 51.4057848,13.6993094 51.3346772,13.6993094 C51.2635695,13.6993094 50.2807596,13.7510439 49.8109408,13.7510439 C49.6534881,13.7510439 49.5569848,13.7148298 49.5569848,13.6242943 C49.5555708,13.5913956 49.5676051,13.5593712 49.5902238,13.5358422 C49.6128425,13.5123133 49.6440227,13.499384 49.6763441,13.5001314 C49.8368171,13.4942929 49.9961279,13.4699959 50.1512419,13.427703 C50.4483705,13.3578614 50.5017013,13.0707346 50.5524925,12.6232307 C50.6210607,11.9998294 50.6388376,10.8125214 50.6388376,9.33808669 L50.6388376,6.66082359 C50.6388376,4.30172801 50.6388376,3.87491796 50.6032837,3.39119989 C50.5677298,2.90748183 50.445831,2.64363561 50.110609,2.57120724 C49.9549688,2.53976284 49.796896,2.52245007 49.6382507,2.51947269 C49.5702246,2.5155158 49.5163221,2.45949167 49.5138122,2.39013631 C49.5138122,2.30218757 49.5849199,2.26856011 49.7677683,2.26856011 C50.2756804,2.26856011 51.2407134,2.3047743 51.3270584,2.3047743 C51.4134036,2.3047743 52.3962135,2.26856011 52.8685717,2.26856011 C53.0438014,2.26856011 53.1225278,2.3047743 53.1225278,2.39013631 C53.114434,2.45595647 53.0648649,2.50855 53.0006289,2.51947269 C52.8719862,2.51651247 52.7434082,2.52778769 52.6171553,2.55310014 C52.1930486,2.64363561 52.1092431,2.85574727 52.0711498,3.39378662 C52.0533728,3.87750468 52.0533728,4.30431474 52.0533728,6.66341032 L52.0584519,9.33808669 Z" id="Shape"></path>
                    <path d="M56.5661719,12.3205836 C55.0602125,11.0013525 54.6919762,9.26565827 54.6919762,7.82226429 C54.7205454,6.2661058 55.3415596,4.78212169 56.4239566,3.68350011 C57.3559752,2.772972 58.7578127,2.05903517 61.1246831,2.05903517 C61.8762525,2.06091867 62.6266445,2.1197132 63.3696547,2.23493266 C63.8899667,2.35136027 64.4178893,2.42916653 64.9492613,2.46773814 C65.1067141,2.46773814 65.1422679,2.53757978 65.1422679,2.62811525 C65.1422679,2.71865071 65.1067141,2.93076237 65.0711603,3.48432209 C65.0533833,3.98356051 65.0533833,4.82424699 65.0356064,5.03635865 C65.0178294,5.24847031 64.9492613,5.3596996 64.8629163,5.3596996 C64.7765712,5.3596996 64.7359382,5.25364377 64.7359382,5.03635865 C64.7485278,4.45938805 64.5128837,3.90563943 64.0908898,3.52053627 C63.5474239,3.0549253 62.4249381,2.6798498 61.0434172,2.6798498 C59.06256,2.6798498 58.1153038,3.22047587 57.5718379,3.73782139 C56.4518917,4.79579299 56.1979357,6.16158516 56.1979357,7.69551463 C56.1979357,10.6081699 58.4606841,13.1948975 61.7570337,13.1948975 C62.9125337,13.1948975 63.6845602,13.1069488 64.2965943,12.4809607 C64.5968501,12.1152127 64.8020655,11.6784799 64.893391,11.2108775 C64.9289448,11.0505004 64.9467218,10.9987658 65.0508438,10.9987658 C65.1549657,10.9987658 65.1905196,11.1048216 65.1905196,11.2108775 C65.1082076,11.8674034 64.9852167,12.5179704 64.8222833,13.1586834 C64.7333987,13.4458101 64.6978449,13.4975446 64.4362701,13.6061872 C63.806459,13.86486 62.6585777,13.9450485 61.6427535,13.9450485 C59.3292138,13.9450485 57.767384,13.3914888 56.5636323,12.3205836" id="Shape"></path>
                    <path d="M70.7089846,2.57120724 C70.9019913,2.07196881 70.9629407,1.97884662 71.077221,1.97884662 C71.2372133,1.97884662 71.290544,2.19871847 71.4479968,2.53499306 C71.7273484,3.1765015 74.2008804,9.44672924 75.1481366,11.7489168 C75.7093794,13.1069488 76.1334861,13.3009534 76.4661684,13.4095959 C76.6658421,13.4689918 76.8727288,13.4994691 77.0807421,13.5001314 C77.1670872,13.5001314 77.2737487,13.5363456 77.2737487,13.6217076 C77.2737487,13.7070696 77.0959795,13.7484573 76.9232894,13.7484573 C76.6947289,13.7484573 75.5519267,13.7484573 74.4827716,13.7122431 C74.1856431,13.6967227 73.9393057,13.6967227 73.9393057,13.6061872 C73.9393057,13.5156517 73.9748595,13.5337588 74.0459673,13.5001314 C74.1224092,13.4687092 74.181708,13.4050533 74.2085049,13.3256505 C74.2353019,13.2462478 74.2269613,13.1589089 74.1856431,13.086255 L72.799043,9.6045196 C72.7660287,9.53467793 72.7457123,9.51657083 72.6593672,9.51657083 L69.1039824,9.51657083 C69.0304726,9.5167947 68.9665713,9.56801154 68.9490693,9.64073382 L68.0678417,12.069671 C67.937747,12.3934437 67.8613668,12.7369822 67.8418208,13.086255 C67.8418208,13.3889021 68.0957769,13.5001314 68.3675099,13.5001314 L68.5097252,13.5001314 C68.6316242,13.5001314 68.6646385,13.5518659 68.6646385,13.6217076 C68.6646385,13.6915492 68.5782933,13.7484573 68.436078,13.7484573 C68.0678417,13.7484573 67.2297867,13.6967227 67.0520175,13.6967227 C66.8742483,13.6967227 66.1225383,13.7484573 65.4927273,13.7484573 C65.2997207,13.7484573 65.1930591,13.7122431 65.1930591,13.6217076 C65.2010449,13.5490348 65.2636231,13.4955383 65.3352745,13.5001314 C65.4419361,13.5001314 65.667957,13.4794375 65.7898558,13.4639172 C66.4933141,13.370795 66.7904427,12.8353424 67.0901109,12.0670843 L70.7089846,2.57120724 Z M72.4282672,8.89316951 C72.4993748,8.89316951 72.4993748,8.85695533 72.4841375,8.78452696 L70.9604012,4.62506896 C70.8740561,4.39226347 70.7851715,4.39226347 70.7064451,4.62506896 L69.2665143,8.78452696 C69.2487373,8.8543686 69.2665143,8.89316951 69.3173055,8.89316951 L72.4282672,8.89316951 Z" id="Shape"></path>
                    <path d="M79.1200092,11.6790751 C79.1555631,12.9258778 79.295239,13.30354 79.716806,13.4095959 C79.9670841,13.4660524 80.2223584,13.4963875 80.4786741,13.5001314 C80.5112007,13.4987203 80.5428817,13.5109035 80.5663769,13.5338582 C80.589872,13.5568128 80.6031421,13.5885469 80.6031126,13.6217076 C80.6031126,13.7122431 80.4989906,13.7484573 80.323761,13.7484573 C79.4476125,13.7484573 78.8330389,13.6993094 78.6933631,13.6993094 C78.5536872,13.6993094 77.9086389,13.7484573 77.2051806,13.7484573 C77.0477278,13.7484573 76.9512245,13.7329368 76.9512245,13.6217076 C76.9512245,13.5885469 76.9644652,13.5568128 76.9879603,13.5338582 C77.0114554,13.5109035 77.0431364,13.4987203 77.075663,13.5001314 C77.2885248,13.4973447 77.5001688,13.4669208 77.705474,13.4095959 C78.0914872,13.30354 78.1422784,12.8922504 78.1422784,11.518698 L78.1422784,2.82211982 C78.1422784,2.21423883 78.2286235,2.04610154 78.3556016,2.04610154 C78.5282916,2.04610154 78.7924059,2.34874867 78.9498587,2.50912577 C79.2038148,2.76779854 81.4386281,5.18897557 83.8232754,7.68258099 C85.3470118,9.29152555 86.9977261,11.0944747 87.4700843,11.5937131 L87.3100921,3.98614724 C87.2923151,3.00577748 87.2034305,2.6617427 86.7310723,2.57379397 C86.479301,2.53024868 86.2245629,2.50689644 85.9692041,2.50395233 C85.9333199,2.50358153 85.89934,2.48744949 85.8759857,2.45969678 C85.8526313,2.43194405 85.8421768,2.39527289 85.8473052,2.35909557 C85.8473052,2.27114684 85.9692041,2.25303974 86.1444337,2.25303974 C86.8453525,2.25303974 87.5818251,2.28925393 87.7595943,2.28925393 C87.9373635,2.28925393 88.4376569,2.25303974 89.0700073,2.25303974 C89.2274602,2.25303974 89.3493588,2.27114684 89.3493588,2.35909557 C89.3344315,2.44396586 89.2613082,2.50530359 89.1766687,2.50395233 C89.0531225,2.50244259 88.9297451,2.51370948 88.8084328,2.53757978 C88.3005207,2.64622234 88.2675064,2.94886947 88.2675064,3.85939759 L88.2294129,12.7525671 C88.2294129,13.7536307 88.2141756,13.8441661 88.1075141,13.8441661 C87.9475217,13.8441661 87.7926086,13.7174165 86.9316975,12.9129442 C86.7767844,12.7706742 84.5495897,10.5383282 82.9191919,8.81039423 C81.1414995,6.8962158 79.3968214,5.03894537 78.9219236,4.50349276 L79.1200092,11.6790751 Z" id="Shape"></path>
                    <path d="M109.127457,11.2858926 L109.196025,11.2858926 C109.668383,9.64073382 111.281004,4.46469185 111.895577,2.17802464 C112.014308,1.80853952 112.079332,1.42334992 112.088585,1.03469104 C112.088585,0.711350092 111.895577,0.499238428 111.090538,0.499238428 C111.014002,0.507032404 110.944847,0.45249877 110.933085,0.375075503 C110.933085,0.284540037 111.021969,0.24832585 111.232753,0.24832585 C112.126678,0.24832585 112.863151,0.30264713 113.010445,0.30264713 C113.157739,0.30264713 113.884054,0.24832585 114.432598,0.24832585 C114.590051,0.24832585 114.686555,0.284540037 114.686555,0.354381682 C114.686555,0.424223327 114.635764,0.499238428 114.529102,0.499238428 C114.327084,0.502019696 114.126351,0.5324713 113.932306,0.589773894 C113.406617,0.783778465 113.127265,1.53392947 112.794582,2.51688596 C112.032714,4.78544607 110.255022,10.4633132 109.569341,12.4628536 C109.11222,13.7820847 109.025875,13.9993698 108.830329,13.9993698 C108.634782,13.9993698 108.550977,13.7665643 108.307179,13.0707346 L104.866074,3.14028731 L104.83052,3.14028731 C104.200709,4.85528772 101.795746,11.3893616 101.165935,13.0526275 C100.886583,13.8027785 100.797698,13.9993698 100.586915,13.9993698 C100.376131,13.9993698 100.332958,13.8027785 99.9748808,12.5870165 L96.853761,1.99695371 C96.5744086,1.05021141 96.3458485,0.783778465 95.8912672,0.60529426 C95.6340748,0.532942993 95.3682779,0.497251448 95.1014635,0.499238428 C95.0125788,0.499238428 94.9414718,0.481131335 94.9414718,0.375075503 C94.9414718,0.269019671 95.0455936,0.24832585 95.223363,0.24832585 C96.1325256,0.24832585 97.0975581,0.30264713 97.2905646,0.30264713 C97.483572,0.30264713 98.2200446,0.24832585 99.0961924,0.24832585 C99.3501491,0.24832585 99.4110984,0.30264713 99.4110984,0.375075503 C99.4110984,0.447503876 99.3247533,0.499238428 99.2384083,0.499238428 C99.0060116,0.487490979 98.7736746,0.523560728 98.5552661,0.60529426 C98.406008,0.69340025 98.3177491,0.859212873 98.326706,1.03469104 C98.4061834,1.58768273 98.5181245,2.13532611 98.6619275,2.67467634 C98.9158842,3.82059667 100.749446,10.3753645 101.008482,11.31952 L101.044035,11.31952 L104.761952,1.14074687 C105.015908,0.408702962 105.094635,0.318167496 105.198757,0.318167496 C105.302878,0.318167496 105.427317,0.55097298 105.638101,1.15626724 L109.127457,11.2858926 Z" id="Shape"></path>
                    <path d="M117.779739,2.57120724 C117.970206,2.07196881 118.033696,1.97884662 118.147976,1.97884662 C118.305429,1.97884662 118.35876,2.19871847 118.516212,2.53499306 C118.795564,3.1765015 121.269095,9.44672924 122.213812,11.7489168 C122.775055,13.1069488 123.194083,13.3009534 123.529305,13.4095959 C123.728147,13.4688189 123.934171,13.4992952 124.141339,13.5001314 C124.232763,13.5001314 124.334345,13.5363456 124.334345,13.6217076 C124.334345,13.7070696 124.159116,13.7484573 123.983886,13.7484573 C123.757865,13.7484573 122.617602,13.7484573 121.545908,13.7122431 C121.248779,13.6967227 121.002442,13.6967227 121.002442,13.6061872 C121.002442,13.5156517 121.040535,13.5337588 121.106564,13.5001314 C121.183596,13.4694157 121.243495,13.405785 121.270387,13.3261005 C121.297279,13.246416 121.28845,13.1587217 121.246239,13.086255 L119.862179,9.6045196 C119.826626,9.53467793 119.808849,9.51657083 119.722504,9.51657083 L116.167119,9.51657083 C116.092974,9.51653282 116.028202,9.56761008 116.009666,9.64073382 L115.130978,12.069671 C114.999695,12.3931877 114.922443,12.7367863 114.902418,13.086255 C114.902418,13.3889021 115.156373,13.5001314 115.428107,13.5001314 L115.567782,13.5001314 C115.689682,13.5001314 115.727775,13.5518659 115.727775,13.6217076 C115.727775,13.6915492 115.63889,13.7484573 115.499214,13.7484573 C115.130978,13.7484573 114.287844,13.6967227 114.115154,13.6967227 C113.942464,13.6967227 113.185675,13.7484573 112.555864,13.7484573 C112.362857,13.7484573 112.258735,13.7122431 112.258735,13.6217076 C112.265451,13.5494277 112.32727,13.4956198 112.398411,13.5001314 C112.502532,13.5001314 112.733633,13.4794375 112.855532,13.4639172 C113.556451,13.370795 113.853579,12.8353424 114.153247,12.0670843 L117.779739,2.57120724 Z M119.499022,8.89316951 C119.57013,8.89316951 119.57013,8.85695533 119.552353,8.78452696 L118.028617,4.62506896 C117.939732,4.39226347 117.853387,4.39226347 117.77466,4.62506896 L116.33727,8.78452696 C116.322032,8.8543686 116.33727,8.89316951 116.3906,8.89316951 L119.499022,8.89316951 Z" id="Shape"></path>
                    <path d="M128.41034,9.33808669 C128.41034,10.8021745 128.41034,11.9998294 128.478908,12.6232307 C128.5297,13.0707346 128.600808,13.3578614 129.073166,13.427703 C129.305943,13.4667329 129.540887,13.4909227 129.776623,13.5001314 C129.810061,13.4958755 129.843554,13.5075814 129.867381,13.5318513 C129.891208,13.5561211 129.902701,13.5902364 129.898523,13.6242943 C129.898523,13.6993094 129.829955,13.7510439 129.644566,13.7510439 C128.801432,13.7510439 127.821162,13.6993094 127.734817,13.6993094 C127.648472,13.6993094 126.592015,13.7510439 126.134894,13.7510439 C125.962204,13.7510439 125.880938,13.7148298 125.880938,13.6242943 C125.880938,13.5337588 125.913952,13.5182385 126.005376,13.5182385 C126.159719,13.5112075 126.312921,13.4878003 126.462497,13.4483968 C126.779942,13.3759685 126.863748,13.0733214 126.917078,12.6258175 C126.985647,12.0024161 126.985647,10.8151081 126.985647,9.34067336 L126.985647,2.96438984 L124.760992,2.9980173 C123.798498,3.01871112 123.430262,3.12476695 123.199161,3.48173536 C123.098426,3.63274997 123.01332,3.79398762 122.945206,3.9628667 C122.909652,4.08961634 122.858861,4.10772344 122.785214,4.10772344 C122.722663,4.10091992 122.676633,4.04488735 122.681091,3.98097379 C122.681091,3.82059667 122.995997,2.46515141 123.013774,2.33840176 C123.031551,2.2116521 123.115356,2.05386172 123.171227,2.05386172 C123.394994,2.12738048 123.623181,2.18613472 123.854368,2.2297592 C124.293712,2.28408047 124.88797,2.29960084 125.0632,2.29960084 L130.883872,2.29960084 C131.253284,2.30363243 131.622494,2.28029029 131.988581,2.2297592 C132.217142,2.19871847 132.359357,2.15733083 132.427925,2.15733083 C132.496493,2.15733083 132.496493,2.24786629 132.496493,2.33840176 C132.496493,2.801426 132.445702,3.89043832 132.445702,4.07150926 C132.445702,4.19308545 132.374595,4.26810056 132.303487,4.26810056 C132.232379,4.26810056 132.199365,4.21377927 132.181588,4.00942779 L132.16381,3.84905067 C132.11302,3.38343971 131.777797,3.04457839 130.307392,3.0083642 L128.377326,2.97473674 L128.41034,9.33808669 Z" id="Shape"></path>
                    <path d="M134.858284,6.66082359 C134.858284,4.30172801 134.858284,3.87491796 134.822731,3.39119989 C134.787176,2.90748183 134.700831,2.61518161 134.19292,2.55051342 C134.07102,2.53499306 133.806907,2.51688596 133.66723,2.51688596 C133.602995,2.50596327 133.553425,2.45336974 133.545332,2.38754958 C133.545332,2.29960084 133.6139,2.26597339 133.799288,2.26597339 C134.502746,2.26597339 135.498254,2.30218757 135.57698,2.30218757 C135.655706,2.30218757 138.908884,2.32029466 139.259343,2.30218757 C139.493439,2.28483492 139.726527,2.25548147 139.957722,2.21423883 C140.02883,2.2013052 140.102477,2.14439719 140.171045,2.14439719 C140.239613,2.14439719 140.237073,2.21423883 140.237073,2.2866672 C140.237073,2.35909557 140.153268,2.57120724 140.117715,3.00060403 C140.099938,3.14287404 140.061844,3.8231834 140.02883,4.0016676 C140.013593,4.07409598 139.957722,4.15945799 139.886614,4.15945799 C139.815507,4.15945799 139.764715,4.09220307 139.764715,3.96545342 C139.764268,3.78425654 139.735111,3.60432096 139.67837,3.43258753 C139.571709,3.17391477 139.424415,3.07561913 138.573662,2.96697657 C138.319706,2.93076237 136.521697,2.91265529 136.343928,2.91265529 C136.275359,2.91265529 136.257583,2.96697657 136.257583,3.0730324 L136.257583,7.1962762 C136.257583,7.30233203 136.257583,7.35924004 136.343928,7.35924004 C136.536934,7.35924004 138.573662,7.35924004 138.924121,7.32302586 C139.274581,7.28681167 139.518378,7.2712913 139.685989,7.10832746 C139.790111,7.00227163 139.861219,6.91173616 139.914549,6.91173616 C139.967881,6.91173616 140.003434,6.94795036 140.003434,7.03589909 C139.947964,7.31368685 139.907271,7.59432482 139.881535,7.87658556 C139.843441,8.17923269 139.810428,8.75089949 139.810428,8.85695533 C139.810428,8.96301115 139.774874,9.14408212 139.670751,9.14408212 C139.56663,9.14408212 139.56409,9.0897608 139.56409,9.00181203 C139.572009,8.83229581 139.547869,8.662809 139.492983,8.50257364 C139.442191,8.28787526 139.302515,8.10939105 138.705719,8.03696267 C138.284151,7.9826414 136.635977,7.9645343 136.371862,7.9645343 C136.343129,7.96008675 136.314031,7.96981962 136.293481,7.9907522 C136.272929,8.01168477 136.263374,8.041323 136.26774,8.07059013 L136.26774,9.33808669 C136.26774,9.85543216 136.249964,11.6247538 136.26774,11.9248143 C136.303295,12.9439849 136.585186,13.1405763 138.106383,13.1405763 C138.510173,13.1405763 139.246645,13.1405763 139.652975,12.9801992 C140.059305,12.819822 140.265009,12.5352819 140.351354,11.9248143 C140.389447,11.7489168 140.422462,11.6920087 140.511347,11.6920087 C140.600231,11.6920087 140.615468,11.8161717 140.615468,11.9248143 C140.572474,12.4163651 140.502954,12.9051334 140.407224,13.3889021 C140.300562,13.7820847 140.153268,13.7820847 139.548853,13.7820847 C138.390813,13.7820847 137.496888,13.7458705 136.864538,13.7303502 C136.232187,13.7148298 135.813159,13.6967227 135.594757,13.6967227 C135.561743,13.6967227 135.262075,13.6967227 134.926853,13.7122431 C134.59163,13.7277634 134.281804,13.7484573 134.032927,13.7484573 C133.878014,13.7484573 133.778971,13.7122431 133.778971,13.6217076 C133.777513,13.5883444 133.789887,13.5558928 133.813071,13.5322781 C133.836256,13.5086635 133.868115,13.4960596 133.90087,13.4975446 C134.059581,13.4828578 134.217306,13.4586733 134.373229,13.4251163 C134.670357,13.370795 134.705911,13.0681478 134.777019,12.620644 C134.86395,11.5279834 134.893621,10.4313787 134.865903,9.33549994 L134.858284,6.66082359 Z" id="Shape"></path>
                    <path d="M143.49025,6.53817484 C143.49025,4.17907927 143.49025,3.75226921 143.454697,3.26855115 C143.419143,2.78483309 143.332798,2.49253287 142.824886,2.42786467 C142.702987,2.41234431 142.438873,2.39423722 142.301736,2.39423722 C142.237314,2.38464412 142.186716,2.33310728 142.177298,2.26748756 C142.177298,2.17953883 142.245866,2.14591137 142.431254,2.14591137 C143.132173,2.14591137 144.165774,2.18212556 144.254658,2.18212556 C144.414651,2.18212556 145.709827,2.14591137 146.184724,2.14591137 C147.167535,2.14591137 148.251927,2.23644683 149.062047,2.8055269 C149.710982,3.29195086 150.105041,4.05466312 150.131201,4.87490899 C150.131201,6.0001355 149.67408,7.08914783 148.239229,8.34112399 C149.509009,9.94748179 150.570546,11.3210342 151.464471,12.2703632 C152.289828,13.12657 152.79774,13.2688401 153.186293,13.3231613 C153.364458,13.3590062 153.545612,13.3771982 153.72722,13.3774827 C153.798352,13.3756942 153.859011,13.4296166 153.866895,13.5016456 C153.866895,13.592181 153.77801,13.6283952 153.498659,13.6283952 L152.536166,13.6283952 C151.657478,13.6283952 151.266385,13.5404464 150.885451,13.3257481 C150.220086,12.966193 149.658843,12.234149 148.780156,11.0908154 C148.132567,10.2708228 147.446886,9.28010614 147.114203,8.8765766 C147.064742,8.81186594 146.986053,8.77765553 146.90596,8.78604113 L144.94034,8.74982695 C144.871772,8.74982695 144.833678,8.78604113 144.833678,8.87398987 L144.833678,9.23095824 C144.833678,10.6976329 144.833678,11.8745939 144.904786,12.4979952 C144.955577,12.9454991 145.044462,13.2326259 145.51682,13.3024676 C145.743638,13.3414214 145.972663,13.3656132 146.202501,13.3748959 C146.235771,13.3704328 146.269163,13.3821773 146.29264,13.4065993 C146.316117,13.4310212 146.326942,13.4652729 146.321861,13.4990588 C146.321861,13.5740739 146.255832,13.6258085 146.067905,13.6258085 C145.22477,13.6258085 144.244501,13.5740739 144.173393,13.5740739 C144.155616,13.5740739 143.122014,13.6258085 142.649656,13.6258085 C142.492203,13.6258085 142.3957,13.5895943 142.3957,13.4990588 C142.394242,13.4656956 142.406617,13.4332441 142.4298,13.4096294 C142.452985,13.3860147 142.484844,13.3734108 142.517599,13.3748959 C142.678064,13.3689697 142.837365,13.3446742 142.992497,13.3024676 C143.289626,13.2326259 143.325179,12.9454991 143.393748,12.4979952 C143.478451,11.4052139 143.507272,10.3086834 143.480093,9.21285122 L143.49025,6.53817484 Z M144.82352,7.83153865 C144.821052,7.91201868 144.861969,7.98743593 144.930182,8.02812995 C145.158742,8.1548796 145.946006,8.26093543 146.629148,8.26093543 C147.031898,8.2950186 147.4354,8.20488793 147.787187,8.00226267 C148.312876,7.64529426 148.716667,6.84082197 148.716667,5.67420783 C148.716667,3.78330994 147.700842,2.69171089 146.052667,2.69171089 C145.68184,2.6900333 145.311508,2.71944885 144.945419,2.77965963 C144.8724,2.80913078 144.824198,2.88073236 144.82352,2.96073056 L144.82352,7.83153865 Z" id="Shape"></path>
                </g>
            </g>
        </g>
    </g>
</svg>