<?xml version="1.0" encoding="UTF-8"?>
<svg width="154px" height="22px" viewBox="0 0 154 22" version="1.1" xmlns="http://www.w3.org/2000/svg" xmlns:xlink="http://www.w3.org/1999/xlink">
    <!-- Generator: Sketch 43.2 (39069) - http://www.bohemiancoding.com/sketch -->
    <title>Bristol-Myers_Squibb_logo_(2020)</title>
    <desc>Created with Sketch.</desc>
    <defs></defs>
    <g id="Page-1" stroke="none" stroke-width="1" fill="none" fill-rule="evenodd">
        <g id="Bristol-Myers_Squibb_logo_(2020)" fill-rule="nonzero">
            <path d="M5.99267235,21.0725228 C5.83017811,21.4078956 5.48480573,21.6238495 5.11289582,21.6238495 C4.96424724,21.6238495 4.82098308,21.590966 4.68694937,21.5253914 C1.62013492,20.0389056 0,17.419383 0,13.9491213 L0,10.0296447 C0,9.49043307 0.438253708,9.05217937 0.977273077,9.05217937 C1.51610015,9.05217937 1.95473845,9.49043307 1.95473845,10.0296447 L1.95473845,13.948929 C1.95473845,16.6557562 3.16065728,18.6129946 5.53999608,19.7671845 C6.024402,20.0025607 6.22785633,20.5881169 5.99267235,21.0725228 Z M3.1006594,11.9884215 C3.1006594,12.5426327 3.54987426,12.9914629 4.1035085,12.9914629 C4.65752734,12.9914629 5.10674219,12.5426327 5.10674219,11.9884215 L5.10674219,3.99024328 C5.10674219,3.43583984 4.65771964,2.98720188 4.1035085,2.98720188 C3.54987426,2.98720188 3.1006594,3.43583984 3.1006594,3.99024328 L3.1006594,11.9884215 Z M6.20381872,11.7559298 C6.20381872,12.3097563 6.65284128,12.7587788 7.20647551,12.7587788 C7.76049435,12.7587788 8.20951691,12.3097563 8.20951691,11.7559298 L8.20951691,1.00227219 C8.20951691,0.448253353 7.76049435,0 7.20647551,0 C6.65284128,0 6.20381872,0.448253353 6.20381872,1.00227219 L6.20381872,11.7559298 Z M9.30678573,12.4959035 C9.30678573,13.0499224 9.75580829,13.4985603 10.3094425,13.4985603 C10.8636537,13.4985603 11.3126762,13.0499224 11.3126762,12.4959035 L11.3126762,2.84239932 C11.3126762,2.28838048 10.8636537,1.83935793 10.3094425,1.83935793 C9.75580829,1.83935793 9.30678573,2.28838048 9.30678573,2.84239932 L9.30678573,12.4959035 L9.30678573,12.4959035 Z M12.4097527,13.7735506 C12.4097527,14.3110316 12.8453142,14.7464008 13.3824106,14.7464008 C13.9196993,14.7464008 14.3552608,14.3110316 14.3552608,13.7735506 L14.3552608,7.24935861 C14.3552608,6.71187765 13.9196993,6.27631615 13.3824106,6.27631615 C12.8453142,6.27631615 12.4097527,6.71187765 12.4097527,7.24935861 L12.4097527,13.7735506 L12.4097527,13.7735506 Z" id="Shape" fill="#BE2BBB"></path>
            <path d="M24.7410467,11.9309236 L24.7427774,11.8707334 C26.0050404,11.4369026 26.7875127,10.6776987 26.7875127,9.32255441 L26.7875127,9.11448485 C26.7875127,7.55857842 25.5223652,6.27862376 22.9424566,6.27862376 L19.3737368,6.27862376 L19.3737368,18.4220398 L23.2014859,18.4220398 C25.7088971,18.4220398 27.4301823,17.1615075 27.4301823,15.1435021 L27.4301823,15.0225448 C27.4303746,13.4481775 26.503292,12.2951414 24.7410467,11.9309236 Z M20.93522,7.64915214 L22.7195799,7.64915214 C24.4204812,7.64915214 25.2877581,8.29316779 25.2877581,9.44678077 L25.2877581,9.56869953 C25.2877581,10.9613425 24.0839546,11.4074806 22.5022799,11.4074806 L20.93522,11.4074806 L20.93522,7.64915214 Z M25.8306235,15.0042762 C25.8306235,16.506723 24.6470116,17.0686262 22.9199574,17.0686262 L20.93522,17.0686262 L20.93522,12.6912812 L22.9480333,12.6912812 C24.6481654,12.6912812 25.8306235,13.2562612 25.8306235,14.8133215 L25.8306235,15.0042762 L25.8306235,15.0042762 Z M32.533463,9.22775007 L32.9844086,9.22775007 L32.9844086,10.6501997 L32.6201907,10.6501997 C31.1625501,10.6501997 30.2083531,11.3786354 30.2083531,13.3049133 L30.2083531,18.4218475 L28.7518662,18.4218475 L28.7518662,9.22775007 L30.2083531,9.22775007 L30.2083531,10.8759609 L30.277966,10.8759609 C30.5381491,10.0436827 31.2150482,9.22775007 32.533463,9.22775007 Z M34.2809011,9.22775007 L35.7385418,9.22775007 L35.7385418,18.4222321 L34.2809011,18.4222321 L34.2809011,9.22775007 Z M35.8983438,7.16513082 C35.8983438,7.87529798 35.5750861,8.2079785 35.0093369,8.2079785 C34.4433954,8.2079785 34.119753,7.87529798 34.119753,7.16513082 C34.119753,6.45515597 34.4433954,6.10209155 35.0093369,6.10209155 C35.5752784,6.10209155 35.8983438,6.45496367 35.8983438,7.16513082 Z M43.821717,15.8892449 C43.821717,17.6589899 42.5029176,18.5953029 40.5776012,18.5953029 C38.6345931,18.5953029 37.3507924,17.7626401 37.2467576,15.8892449 L38.704206,15.8892449 C38.7561272,17.0170896 39.5885978,17.3814997 40.5776012,17.3814997 C41.56622,17.3814997 42.3642687,16.9476689 42.3642687,15.9928951 C42.3642687,13.7554743 37.3507924,15.2998427 37.3507924,11.6743942 C37.3507924,10.1640631 38.4611377,9.05410238 40.4906812,9.05410238 C42.3473462,9.05410238 43.5790333,9.97368519 43.7178746,11.760545 L42.2604262,11.760545 C42.1736985,10.6848138 41.4277634,10.2684824 40.4906812,10.2684824 C39.4324494,10.2684824 38.7734343,10.7542345 38.7734343,11.6745865 C38.773242,13.8423943 43.821717,12.5064801 43.821717,15.8892449 Z M47.183521,9.22775007 L49.1613356,9.22775007 L49.1613356,10.5115508 L47.183521,10.5115508 L47.183521,15.594063 C47.183521,16.9299773 47.5310087,17.2074674 48.4154005,17.2074674 C48.6580842,17.2074674 48.9357667,17.172661 49.1613356,17.1553539 L49.1613356,18.404925 C48.8840377,18.4568462 48.5194353,18.4912681 48.2594445,18.4912681 C46.4552776,18.4912681 45.7268419,17.7799471 45.7268419,15.8190551 L45.7268419,10.5115508 L44.1826658,10.5115508 L44.1826658,9.22775007 L45.7268419,9.22775007 L45.7268419,6.27881606 L47.183521,6.27881606 L47.183521,9.22775007 L47.183521,9.22775007 Z M53.4659908,9.05410238 C51.1929944,9.05410238 49.9788066,10.6157778 49.9788066,13.1483804 L49.9788066,14.5016017 C49.9788066,17.0342043 51.1928021,18.5954952 53.4659908,18.5954952 C55.7380257,18.5954952 56.9522135,17.0342043 56.9522135,14.5016017 L56.9522135,13.1483804 C56.9522135,10.6157778 55.738218,9.05410238 53.4659908,9.05410238 Z M55.4782272,14.4146817 C55.4782272,16.6005658 54.7147927,17.3116945 53.4659908,17.3116945 C52.216612,17.3116945 51.4539467,16.6005658 51.4539467,14.4146817 L51.4539467,13.2349158 C51.4539467,11.0490317 52.2168043,10.3379031 53.4659908,10.3379031 C54.7147927,10.3379031 55.4782272,11.0490317 55.4782272,13.2349158 L55.4782272,14.4146817 Z M58.4925435,6.27881606 L59.9501842,6.27881606 L59.9501842,18.4216552 L58.4925435,18.4216552 L58.4925435,6.27881606 Z M74.0058402,6.27881606 L76.4790218,6.27881606 L76.4790218,18.4222321 L74.9350381,18.4222321 L74.9350381,7.96183337 L74.8485027,7.96183337 L71.7428434,16.4117264 L69.8517566,16.4117264 L66.7820576,7.96183337 L66.6953299,7.96183337 L66.6953299,18.4222321 L65.1688455,18.4222321 L65.1688455,6.27881606 L67.7627921,6.27881606 L70.8238375,14.7137096 L70.9109498,14.7137096 L74.0058402,6.27881606 Z M83.5655016,9.22775007 L85.0400648,9.22775007 L80.9634784,21.3709738 L79.4543011,21.3709738 L80.4779187,18.4908835 L77.493409,9.22736547 L79.0377774,9.22736547 L81.2407763,16.3924963 L81.3101969,16.3924963 L83.5655016,9.22775007 Z M88.9549261,9.05410238 C86.6828912,9.05410238 85.4683188,10.6846215 85.4683188,13.1483804 L85.4683188,14.5016017 C85.4683188,17.0342043 86.6826989,18.5954952 88.9549261,18.5954952 C90.7767846,18.5954952 91.8517466,17.589377 92.2161567,15.8721301 L90.7244788,15.8721301 C90.4642957,16.9301696 89.8743166,17.3118868 88.9549261,17.3118868 C87.7065088,17.3118868 86.942882,16.6007581 86.942882,14.414874 L86.942882,14.2935322 L92.268078,14.2935322 L92.268078,13.1483804 C92.2682703,10.6848138 91.2281148,9.05410238 88.9549261,9.05410238 Z M88.9549261,10.3380954 C90.1356535,10.3380954 90.7748616,11.0330707 90.7925533,13.1483804 L86.9453819,13.1483804 C86.9653812,11.0330707 87.7236236,10.3380954 88.9549261,10.3380954 Z M97.6711558,9.22775007 L98.1219091,9.22775007 L98.1219091,10.6501997 L97.7576912,10.6501997 C96.3008197,10.6501997 95.3466228,11.3786354 95.3466228,13.3049133 L95.3466228,18.4218475 L93.8893667,18.4218475 L93.8893667,9.22775007 L95.3466228,9.22775007 L95.3466228,10.8759609 L95.4160434,10.8759609 C95.6758419,10.0436827 96.3529333,9.22775007 97.6711558,9.22775007 Z M105.477418,15.8892449 C105.477418,17.6589899 104.159388,18.5953029 102.23311,18.5953029 C100.290102,18.5953029 99.0074546,17.7626401 98.9024584,15.8892449 L100.359907,15.8892449 C100.41202,17.0170896 101.245068,17.3814997 102.23311,17.3814997 C103.221921,17.3814997 104.019969,16.9476689 104.019969,15.9928951 C104.019969,13.7554743 99.0074546,15.2998427 99.0074546,11.6743942 C99.0074546,10.1640631 100.117608,9.05410238 102.146767,9.05410238 C104.00247,9.05410238 105.235311,9.97368519 105.373383,11.760545 L103.915935,11.760545 C103.829784,10.6848138 103.083849,10.2684824 102.146767,10.2684824 C101.088342,10.2684824 100.42952,10.7542345 100.42952,11.6745865 C100.42952,13.8423943 105.477418,12.5064801 105.477418,15.8892449 L105.477418,15.8892449 Z M117.059123,15.2123458 C117.059123,17.3811151 115.567445,18.5954952 113.276949,18.5954952 C111.125872,18.5954952 109.356511,17.5547628 109.131327,15.2302298 L110.744154,15.2302298 C110.935301,16.6007581 111.906998,17.2422739 113.25945,17.2422739 C114.804011,17.2422739 115.498024,16.3228834 115.498024,15.2998427 C115.498024,11.8468881 109.322474,13.8423943 109.322474,9.31467007 C109.322474,7.37185427 110.866265,6.10555297 113.017535,6.10555297 C115.098423,6.10555297 116.833746,7.12878596 116.938358,9.52293192 L115.324184,9.52293192 C115.185728,8.04836877 114.24903,7.45858197 113.000421,7.45858197 C111.52528,7.45858197 110.88338,8.32624354 110.88338,9.24505715 C110.88338,12.2984105 117.059123,10.4940514 117.059123,15.2123458 Z M123.643313,10.3380954 L123.571969,10.3380954 C123.178522,9.52658564 122.430087,9.05429468 121.474736,9.05429468 C119.201932,9.05429468 118.161392,10.6159701 118.161392,13.148765 L118.161392,14.5016017 C118.161392,17.0345889 119.201932,18.5954952 121.474736,18.5954952 C122.430087,18.5954952 123.178906,18.1233965 123.571969,17.3120791 L123.643313,17.3120791 L123.643313,18.4222321 L123.643313,21.3713584 L125.100761,21.3713584 L125.100761,9.22775007 L123.643313,9.22775007 L123.643313,10.3380954 Z M121.647999,17.3118868 C120.399582,17.3118868 119.63557,16.6007581 119.63557,14.414874 L119.63557,13.2351081 C119.63557,11.049224 120.399582,10.3380954 121.647999,10.3380954 C122.896801,10.3380954 123.660812,11.049224 123.660812,13.2351081 L123.660812,14.414874 C123.660812,16.6007581 122.896801,17.3118868 121.647999,17.3118868 Z M131.793024,9.22775007 L133.250665,9.22775007 L133.250665,18.4222321 L131.793024,18.4222321 L131.793024,17.2420816 L131.723988,17.2420816 C131.376693,17.9880167 130.630758,18.5953029 129.468876,18.5953029 C127.751629,18.5953029 126.692628,17.6234142 126.692628,15.4550295 L126.692628,9.22775007 L128.167768,9.22775007 L128.167768,15.2475368 C128.167768,16.7221 128.775054,17.3640003 129.868092,17.3640003 C130.925747,17.3640003 131.793024,16.6526794 131.793024,14.8660119 L131.793024,9.22775007 L131.793024,9.22775007 Z M135.121752,9.22775007 L136.578432,9.22775007 L136.578432,18.4222321 L135.121752,18.4222321 L135.121752,9.22775007 Z M142.158426,9.05410238 C141.189037,9.05410238 140.449641,9.52639334 140.060039,10.3379031 L139.990426,10.3379031 L139.990426,9.22775007 L139.990426,6.27881606 L138.533555,6.27881606 L138.533555,18.4222321 L139.990426,18.4222321 L139.990426,17.3120791 L140.060039,17.3120791 C140.449641,18.1233965 141.189037,18.5954952 142.158426,18.5954952 C144.430846,18.5954952 145.471578,17.0345889 145.471578,14.5016017 L145.471578,13.148765 C145.47177,10.6157778 144.43123,9.05410238 142.158426,9.05410238 Z M143.997784,14.4146817 C143.997784,16.6005658 143.23435,17.3116945 141.98574,17.3116945 C140.736169,17.3116945 139.973504,16.6005658 139.973504,14.4146817 L139.973504,13.2349158 C139.973504,11.0490317 140.736169,10.3379031 141.98574,10.3379031 C143.23435,10.3379031 143.997784,11.0490317 143.997784,13.2349158 L143.997784,14.4146817 Z M150.527745,9.05410238 C149.557395,9.05410238 148.818383,9.52639334 148.428396,10.3379031 L148.358976,10.3379031 L148.358976,9.22775007 L148.358976,6.27881606 L146.902681,6.27881606 L146.902681,18.4222321 L148.358976,18.4222321 L148.358976,17.3120791 L148.428396,17.3120791 C148.818383,18.1233965 149.557395,18.5954952 150.527745,18.5954952 C152.799972,18.5954952 153.840897,17.0345889 153.840897,14.5016017 L153.840897,13.148765 C153.840705,10.6157778 152.799972,9.05410238 150.527745,9.05410238 Z M152.366526,14.4146817 C152.366526,16.6005658 151.603092,17.3116945 150.353521,17.3116945 C149.105296,17.3116945 148.341476,16.6005658 148.341476,14.4146817 L148.341476,13.2349158 C148.341476,11.0490317 149.105296,10.3379031 150.353521,10.3379031 C151.603092,10.3379031 152.366526,11.0490317 152.366526,13.2349158 L152.366526,14.4146817 Z M136.739195,7.16513082 C136.739195,7.87529798 136.415553,8.2079785 135.850188,8.2079785 C135.285208,8.2079785 134.961181,7.87529798 134.961181,7.16513082 C134.961181,6.45515597 135.285208,6.10209155 135.850188,6.10209155 C136.415553,6.10209155 136.739195,6.45496367 136.739195,7.16513082 Z" id="Shape" fill="#595454"></path>
        </g>
    </g>
</svg>