<?xml version="1.0" encoding="UTF-8"?>
<svg width="154px" height="28px" viewBox="0 0 154 28" version="1.1" xmlns="http://www.w3.org/2000/svg" xmlns:xlink="http://www.w3.org/1999/xlink">
    <!-- Generator: Sketch 43.2 (39069) - http://www.bohemiancoding.com/sketch -->
    <title>Johnson_and_Johnson_Logo</title>
    <desc>Created with Sketch.</desc>
    <defs></defs>
    <g id="Page-1" stroke="none" stroke-width="1" fill="none" fill-rule="evenodd">
        <g id="Johnson_and_Johnson_Logo" fill="#D51900">
            <path d="M55.8815693,10.1134257 C55.8815693,9.85981996 56.0540623,9.72428971 56.2707052,9.72428971 C56.637252,9.72428971 57.1906678,10.1134257 57.5027974,10.8916977 C57.3908856,10.8916977 57.2224972,10.92558 57.1095543,10.92558 C56.4421711,10.92558 55.8815693,10.608316 55.8815693,10.1134255 L55.8815693,10.1134257 Z M15.503835,10.1134257 C15.503835,9.85981996 15.6691407,9.72428971 15.8950251,9.72428971 C16.2523317,9.72428971 16.7831584,10.1134257 17.0911821,10.8916977 C16.0603309,10.8916977 15.503835,10.6688943 15.503835,10.1134257 Z M23.2916886,6.09166958 C23.2916886,1.92822272 24.1028156,1.28856127 24.3543679,1.28856127 C24.8020294,1.28856127 24.8554195,1.56783558 24.8554195,3.16442247 C24.8554195,4.80515937 24.1562069,6.95208107 23.2916886,8.13078304 L23.2916886,6.09166958 Z M51.6411169,10.1965919 C51.1606001,10.866029 50.7714642,11.816794 50.7714642,13.0416998 C50.7714642,15.3878098 52.109312,17.6271383 54.7090272,17.6271383 C57.2224972,17.6271383 58.9833619,15.641415 58.9833619,12.8722869 C58.9833619,12.0683459 58.9525609,11.9574573 58.9001967,11.6237661 C59.4844135,11.3691336 59.9885452,10.9799977 60.3807612,10.6688943 C60.7144528,10.417342 60.9639521,10.276678 61.1631402,10.276678 C61.4136654,10.276678 61.5235268,10.4727861 61.5235268,10.8352267 L61.5235268,16.3139326 C61.5235268,17.2061731 61.8058814,17.6271383 62.500988,17.6271383 C63.1416762,17.6271383 63.5924166,17.1774238 63.8419146,16.6476242 C64.7659845,14.7204266 66.1038323,12.1515123 66.688049,11.1761057 C66.8287127,10.9522755 66.9426814,10.7808093 67.0227678,10.7808093 C67.1346796,10.7808093 67.1921807,10.8660287 67.1921807,11.2274429 L67.1921807,15.5890508 C67.1921807,16.81601 67.7527826,17.6271383 68.9766617,17.6271383 C70.2641983,17.6271383 70.9028335,16.3940189 72.0281444,14.4955693 C72.0815422,14.3816032 72.1051468,14.3004871 72.1051468,14.2193749 C72.1051468,13.9678227 71.8874768,13.8251047 71.6626195,13.8251047 C71.4090143,13.8251047 71.2693764,14.0787112 70.4336074,14.9976467 C70.2641944,15.1721928 70.0999158,15.4145048 69.7898391,15.4145048 C69.6789479,15.4145048 69.5937311,15.2800013 69.5937311,15.1095625 L69.5937311,10.2202071 C69.5937311,8.90700148 69.0064329,8.37720163 68.2528032,8.37720163 C67.6398371,8.37720163 67.1346783,8.62875392 66.6048787,9.4111328 C65.655141,10.8105848 64.6776811,12.7952806 64.1489073,13.7953296 C64.0893597,13.9123835 64.0092708,14.0787112 63.9548523,14.0787112 C63.8963253,14.0787112 63.8716871,13.9924582 63.8716871,13.7953296 L63.8716871,10.2202071 C63.8716871,9.18935614 63.5924127,8.37720163 62.5009829,8.37720163 C61.3551371,8.37720163 60.7698932,9.16060725 59.9320699,9.74585141 C59.4012432,10.1411478 58.9279137,10.417342 58.5665,10.5847012 C58.004871,9.16060725 56.972994,8.43880624 56.1074485,8.46036794 C55.2388229,8.49014305 54.6248298,9.02405039 54.6248298,9.91834435 C54.6248298,10.8352267 55.1864587,11.4738615 55.9370097,11.7582696 C56.3538677,11.9256292 56.7460837,11.9574573 57.3077127,11.9574573 C57.4760985,11.9574573 57.6424314,11.9574573 57.7502386,11.9256357 C57.8097863,12.203883 57.7830938,12.6002062 57.7830938,12.9061757 C57.7830938,14.2768787 56.9729927,15.6414215 55.466759,15.6414215 C53.8989209,15.6414215 52.9810125,14.1331349 52.9810125,12.4030711 C52.9810125,11.088839 53.3701484,10.0015171 54.0077565,9.24994048 C54.265469,8.96861268 54.4574698,8.79817309 54.4574698,8.54046036 C54.4574698,8.41006394 54.265469,8.37720809 54.096056,8.37720809 C53.0323496,8.37720809 51.8628876,8.85361726 51.0548407,9.2704753 C49.9880529,9.83005079 48.7343987,10.7551471 47.6994416,11.6761365 C47.1973628,10.5559588 46.5833696,9.5784985 46.2743201,8.82178828 C46.1634289,8.51479182 46.0823193,8.15851165 45.8584892,8.15851165 C45.6603282,8.15851165 45.5740804,8.35359303 45.4375239,8.73862196 C44.9364736,10.2202136 42.2535907,14.553073 41.6673197,15.139344 C41.6118805,15.2194342 41.5307632,15.3077299 41.5040682,15.3077299 C41.4434869,15.3077299 41.4116653,15.2800039 41.4116653,15.1095689 L41.4116653,10.2202136 C41.4116653,8.90700794 40.8818644,8.37720809 40.1610912,8.37720809 C39.5440179,8.37720809 39.0152442,8.62876038 38.5131667,9.41113926 C37.5932041,10.8105913 36.4709733,12.8497055 35.9421995,13.8528333 C35.8569801,14.0253264 35.7727865,14.0787177 35.7440386,14.0787177 C35.7163125,14.0787177 35.6937286,13.9678265 35.6937286,13.795336 L35.6937286,10.2202136 C35.6937286,8.90700794 35.1608489,8.37720809 34.4339142,8.37720809 C33.8178681,8.37720809 33.2346771,8.60617206 32.7572417,9.41113926 C31.5867527,11.3968622 29.6328587,14.4411586 29.269392,14.9401559 C29.2129193,15.0264089 29.1564466,15.0828726 29.1010062,15.1095689 C29.045567,15.1095689 29.0137325,15.0551505 29.0137325,14.916541 L29.0137325,10.2202136 C29.0137325,8.90700794 28.4839329,8.37720809 27.7621312,8.37720809 C26.7548962,8.37720809 26.1994275,9.30333116 25.8328794,9.8865217 C25.3277218,10.6966227 24.6603386,11.7880516 24.1315648,12.7952871 C23.767071,13.4688318 23.4580215,14.0787177 23.3450786,14.0787177 C23.2916937,14.0787177 23.2916937,13.8251112 23.2916937,13.351783 L23.2916937,9.61032761 C25.0484525,7.6513001 26.1388553,5.2517995 26.1388553,2.62641514 C26.1388553,1.11504805 25.4714708,0.28133183 24.4406196,0.28133183 C22.5093147,0.28133183 21.0328575,3.29893244 21.0328575,6.8709747 L21.0328575,9.77563337 C20.1375369,10.3352089 19.2986865,10.6083227 18.263728,10.8105913 C17.7349556,9.24994048 16.6158049,8.4388127 15.7256173,8.4603744 C14.8621261,8.49014951 14.2450529,9.02405685 14.2450529,9.91835081 C14.2450529,11.3968622 15.6978952,12.0108551 16.9792716,12.0108551 L17.3427396,12.0108551 C17.397158,12.2921825 17.397158,12.6002062 17.397158,12.9061757 C17.397158,14.2768787 16.588084,15.6414215 15.0839033,15.6414215 C13.5211995,15.6414215 12.5971298,14.1331349 12.5971298,12.4030711 C12.5971298,11.088839 12.9842126,10.0015171 13.6269538,9.24994048 C13.8805603,8.96861268 14.0776942,8.71706039 14.0776942,8.54046036 C14.0776942,8.41006394 13.8805603,8.37720809 13.7111473,8.37720809 C12.6505205,8.37720809 10.3074908,9.80746248 7.51269373,12.6002062 C7.26524194,10.364978 6.98391402,8.18417372 6.98391402,6.0608672 C6.98391402,3.68806188 7.45313601,1.67256346 7.56505108,1.0914264 C7.6215225,0.731039268 7.65643068,0.504128901 7.65643068,0.339849888 C7.65643068,0.114992914 7.53732893,-2.40785312e-06 7.23649241,-2.40785312e-06 C4.97149519,-2.40785312e-06 9.17943836e-07,3.60489569 9.17943836e-07,8.9953015 C9.17943836e-07,12.8178697 1.39945293,14.662928 3.8246222,17.0367601 C2.3522714,19.4116193 1.17151579,22.2310587 1.17151579,24.7455544 C1.17151579,26.5577575 1.59453431,27.9305135 2.93135498,27.9305135 C5.72512531,27.9305135 7.81762946,22.1242773 7.81762946,17.8201662 C7.81762946,16.5367356 7.76629239,15.2502262 7.65643068,13.9678227 C8.68625553,12.8722869 10.2787355,11.3968557 10.6668447,11.2572185 C10.5005121,11.844516 10.388597,12.4605619 10.388597,13.0416998 C10.388597,15.3878098 11.7315782,17.6271383 14.3261599,17.6271383 C16.7595435,17.6271383 18.5994687,15.641415 18.5994687,12.8722869 C18.5994687,12.5149803 18.570722,12.2038765 18.5460709,11.8701847 C19.4352313,11.7028253 20.2535469,11.4738615 21.0328459,11.006693 L21.0328459,16.619902 C21.0328459,17.3427295 21.5318432,17.6271383 22.0072256,17.6271383 C22.6530469,17.6271383 22.9877656,17.1774238 23.458015,16.149654 C23.8533111,15.3077234 24.9108573,13.3825788 25.5525726,12.2336516 C26.0587573,11.3373045 26.3380317,10.7551407 26.562889,10.7551407 C26.6152532,10.7551407 26.6748009,10.8916977 26.6748009,11.2274429 L26.6748009,16.004883 C26.6748009,17.2903666 27.3452642,17.6271383 27.925375,17.6271383 C28.4839239,17.6271383 28.8494448,17.3201417 29.2129115,16.81601 C30.666781,14.7471216 32.204844,12.292176 32.81473,11.2274429 C32.9276754,11.0364686 33.0662822,10.8916977 33.1792238,10.8916977 C33.2880607,10.8916977 33.3445296,10.952275 33.3445296,11.3106092 L33.3445296,16.3139326 C33.3445296,17.2061731 33.623804,17.6271383 34.3250695,17.6271383 C34.9637047,17.6271383 35.3815899,17.1774238 35.631088,16.6476242 C36.559265,14.7204266 37.9238078,12.1771815 38.513159,11.1761057 C38.6497154,10.9522755 38.7903791,10.7551407 38.8735456,10.7551407 C38.9895659,10.7551407 39.0152364,10.8916977 39.0152364,11.2572185 L39.0152364,16.004883 C39.0152364,17.2903666 39.685701,17.6271383 40.276078,17.6271383 C41.0512697,17.6271383 41.5595086,17.0655094 42.061586,16.4258483 C42.9774414,15.2194239 44.3193965,13.0776351 45.1305235,11.7028254 C45.4118522,12.1515123 45.7157673,12.6833662 45.9714269,13.2686101 C45.2999364,14.0787112 44.628446,14.9976467 44.628446,15.9740808 C44.628446,17.0090379 45.3543536,17.6271383 46.1090105,17.6271383 C47.391414,17.6271383 48.5629289,16.3940189 48.5629289,14.6937302 C48.5629289,14.0253199 48.3709281,13.3250815 48.1214288,12.6566712 C49.2600885,11.5364928 50.6307915,10.4471175 51.6411066,10.1965919 L51.6411169,10.1965919 Z M5.63887942,16.2851833 C5.86476318,17.7636948 6.06087117,19.2196185 6.06087117,20.3623841 C6.06087117,23.0391056 5.16965744,26.1686216 3.63262168,26.1429525 C3.03916373,26.1429525 2.54016611,25.5494941 2.51552432,24.5217243 C2.4590529,21.1735111 4.05050647,18.3232708 5.63887942,16.2851833 Z M46.4139631,14.3816006 C46.5833748,14.8621161 46.6685955,15.2502262 46.6685955,15.641415 C46.6685955,16.0890753 46.5002097,16.5367356 46.1911588,16.5367356 C45.9714359,16.5367356 45.7476058,16.2851833 45.7476058,15.8929673 C45.7476058,15.4730292 46.1090195,14.8025659 46.4139631,14.3816006 L46.4139631,14.3816006 Z M6.64714207,1.0616509 C6.64714207,1.23209036 6.25595256,2.01138903 5.75490146,3.40981431 C5.22407486,4.85957679 4.71789006,6.92435892 4.71789006,9.4111328 C4.71789006,10.8916977 5.08443777,12.8496991 5.39348758,14.8313139 L4.49919362,16.0367111 C3.07304632,14.3004871 2.18080572,12.3486475 2.18080572,8.9953015 C2.18080572,4.2486641 5.05671563,0.955896281 6.53420013,0.955896281 C6.62249963,0.955896281 6.64714168,0.980538333 6.64714168,1.06165052 L6.64714207,1.0616509 Z" id="Fill-1"></path>
            <path d="M137.789449,10.1134257 C137.789449,9.85981996 137.952705,9.72428971 138.178596,9.72428971 C138.538982,9.72428971 139.098554,10.1134257 139.404523,10.8916977 C139.295737,10.8916977 139.128322,10.92558 139.011281,10.92558 C138.34698,10.92558 137.789449,10.608316 137.789449,10.1134255 L137.789449,10.1134257 Z M97.4035059,10.1134257 C97.4035059,9.85981996 97.573946,9.72428971 97.7946947,9.72428971 C98.1581627,9.72428971 98.6941225,10.1134257 98.9949589,10.8916977 C97.9620547,10.8916977 97.4035059,10.6688943 97.4035059,10.1134257 Z M105.196492,6.09166958 C105.196492,1.92822272 106.002486,1.28856127 106.257119,1.28856127 C106.702726,1.28856127 106.759198,1.56783558 106.759198,3.16442247 C106.759198,4.80515937 106.058958,6.95208107 105.196492,8.13078304 L105.196492,6.09166958 Z M87.5488168,16.2851833 C87.7654596,17.7636948 87.9687549,19.2196185 87.9687549,20.3623841 C87.9687549,23.0391056 87.0765145,26.1686216 85.5363985,26.1429525 C84.9511546,26.1429525 84.44805,25.5494941 84.4203279,24.5217243 C84.3628345,21.1735111 85.9573637,18.3232708 87.5488168,16.2851833 L87.5488168,16.2851833 Z M128.322874,14.3816006 C128.492286,14.8621161 128.572372,15.2502262 128.572372,15.641415 C128.572372,16.0890753 128.405014,16.5367356 128.098017,16.5367356 C127.877267,16.5367356 127.647277,16.2851833 127.647277,15.8929673 C127.647277,15.4730292 128.013823,14.8025659 128.322874,14.3816006 Z M88.5488658,1.0616509 C88.5488658,1.23209036 88.1617828,2.01138903 87.6555982,3.40981431 C87.1288787,4.85957679 86.622694,6.92435892 86.622694,9.4111328 C86.622694,10.8916977 86.9954023,12.8496991 87.3003446,14.8313139 L86.4039982,16.0367111 C84.9819568,14.3004871 84.0835562,12.3486475 84.0835562,8.9953015 C84.0835562,4.2486641 86.9656272,0.955896281 88.4431115,0.955896281 C88.5242224,0.955896281 88.5488606,0.980538333 88.5488606,1.06165052 L88.5488658,1.0616509 Z M83.8925825,15.026396 C84.3915799,15.6968593 85.007626,16.3385746 85.7335336,17.0367601 C84.251942,19.4116193 83.0804271,22.2310587 83.0804271,24.7455544 C83.0804271,26.5577575 83.5024195,27.9305135 84.8433474,27.9305135 C87.6330104,27.9305135 89.725515,22.1242773 89.725515,17.8201662 C89.725515,16.5367356 89.6710966,15.2502262 89.5591821,13.9678227 C90.5941393,12.8722869 92.1804593,11.3968557 92.5767825,11.2572185 C92.4083966,11.844516 92.292375,12.4605619 92.292375,13.0416998 C92.292375,15.3878098 93.6343287,17.6271383 96.2340439,17.6271383 C98.6612673,17.6271383 100.504273,15.641415 100.504273,12.8722869 C100.504273,12.5149803 100.478601,12.2038765 100.4478,11.8701847 C101.343122,11.7028253 102.158356,11.4738615 102.935601,11.006693 L102.935601,16.619902 C102.935601,17.3427295 103.435625,17.6271383 103.9069,17.6271383 C104.557856,17.6271383 104.892575,17.1774238 105.364877,16.149654 C105.754013,15.3077234 106.817721,13.3825788 107.461489,12.2336516 C107.962539,11.3373045 108.241814,10.7551407 108.470778,10.7551407 C108.523142,10.7551407 108.575507,10.8916977 108.575507,11.2274429 L108.575507,16.004883 C108.575507,17.2903666 109.243917,17.6271383 109.831215,17.6271383 C110.391817,17.6271383 110.751178,17.3201417 111.121832,16.81601 C112.569541,14.7471216 114.107604,12.292176 114.72057,11.2274429 C114.832482,11.0364686 114.974175,10.8916977 115.081984,10.8916977 C115.190821,10.8916977 115.252423,10.952275 115.252423,11.3106092 L115.252423,16.3139326 C115.252423,17.2061731 115.528617,17.6271383 116.225777,17.6271383 C116.868518,17.6271383 117.28743,17.1774238 117.541035,16.6476242 C118.463051,14.7204266 119.830675,12.1771815 120.414892,11.1761057 C120.557608,10.9522755 120.696219,10.7551407 120.783493,10.7551407 C120.89233,10.7551407 120.923129,10.8916977 120.923129,11.2572185 L120.923129,16.004883 C120.923129,17.2903666 121.587434,17.6271383 122.172678,17.6271383 C122.96019,17.6271383 123.463294,17.0655094 123.962292,16.4258483 C124.883282,15.2194239 126.22729,13.0776351 127.036364,11.7028254 C127.312558,12.1515123 127.62366,12.6833662 127.877267,13.2686101 C127.199616,14.0787112 126.536339,14.9976467 126.536339,15.9740808 C126.536339,17.0090379 127.254034,17.6271383 128.013823,17.6271383 C129.29623,17.6271383 130.467738,16.3940189 130.467738,14.6937302 C130.467738,14.0253199 130.273682,13.3250815 130.022132,12.6566712 C131.165927,11.5364928 132.535601,10.4471175 133.540792,10.1965919 C133.066426,10.866029 132.675238,11.816794 132.675238,13.0416998 C132.675238,15.3878098 134.017199,17.6271383 136.614853,17.6271383 C139.128322,17.6271383 140.883033,15.641415 140.883033,12.8722869 C140.883033,12.0683459 140.857322,11.9574573 140.804997,11.6237661 C141.385111,11.3691336 141.891299,10.9799977 142.286595,10.6688943 C142.614126,10.417342 142.870805,10.276678 143.062807,10.276678 C143.315391,10.276678 143.433465,10.4727861 143.433465,10.8352267 L143.433465,16.3139326 C143.433465,17.2061731 143.708632,17.6271383 144.406822,17.6271383 C145.046484,17.6271383 145.496199,17.1774238 145.748769,16.6476242 C146.664632,14.7204266 148.007613,12.1515123 148.591823,11.1761057 C148.731461,10.9522755 148.845427,10.7808093 148.929626,10.7808093 C149.043579,10.7808093 149.09801,10.8660287 149.09801,11.2274429 L149.09801,15.5890508 C149.09801,16.81601 149.65142,17.6271383 150.883522,17.6271383 C152.172085,17.6271383 152.812768,16.3940189 153.931925,14.4955693 C153.98425,14.3816032 154.010995,14.3004871 154.010995,14.2193749 C154.010995,13.9678227 153.787158,13.8251047 153.565389,13.8251047 C153.315893,13.8251047 153.173167,14.0787112 152.337407,14.9976467 C152.172098,15.1721928 152.001659,15.4145048 151.695691,15.4145048 C151.580704,15.4145048 151.501634,15.2800013 151.501634,15.1095625 L151.501634,10.2202071 C151.501634,8.90700148 150.908174,8.37720163 150.154545,8.37720163 C149.543629,8.37720163 149.043605,8.62875392 148.510725,9.4111328 C147.558932,10.8105848 146.584555,12.7952806 146.057838,13.7953296 C145.997244,13.9123835 145.916146,14.0787112 145.856598,14.0787112 C145.797038,14.0787112 145.775461,13.9924582 145.775461,13.7953296 L145.775461,10.2202071 C145.775461,9.18935614 145.496199,8.37720163 144.406822,8.37720163 C143.258918,8.37720163 142.675728,9.16060725 141.838935,9.74585141 C141.302967,10.1411478 140.831702,10.417342 140.465153,10.5847012 C139.91173,9.16060725 138.874718,8.43880624 138.013286,8.46036794 C137.142604,8.49014305 136.533742,9.02405039 136.533742,9.91834435 C136.533742,10.8352267 137.092294,11.4738615 137.839759,11.7582696 C138.259707,11.9256292 138.650894,11.9574573 139.216629,11.9574573 C139.379884,11.9574573 139.542106,11.9574573 139.661214,11.9256357 C139.715607,12.203883 139.686925,12.6002062 139.686925,12.9061757 C139.686925,14.2768787 138.874769,15.6414215 137.365458,15.6414215 C135.802762,15.6414215 134.884845,14.1331349 134.884845,12.4030711 C134.884845,11.088839 135.272958,10.0015171 135.91262,9.24994048 C136.167244,8.96861268 136.364389,8.79817309 136.364389,8.54046036 C136.364389,8.41006394 136.167244,8.37720809 135.999894,8.37720809 C134.943372,8.37720809 133.766721,8.85361726 132.95662,9.2704753 C131.893936,9.83005079 130.637208,10.7551471 129.607379,11.6761365 C129.103199,10.5559523 128.492286,9.57849204 128.181183,8.82178182 C128.066188,8.51478536 127.990209,8.15850519 127.758164,8.15850519 C127.565136,8.15850519 127.479917,8.35358657 127.342333,8.7386155 C126.838201,10.2202071 124.159427,14.5530665 123.573156,15.1393376 C123.516683,15.2194278 123.433519,15.3077234 123.403743,15.3077234 C123.351379,15.3077234 123.320578,15.2799974 123.320578,15.1095625 L123.320578,10.2202071 C123.320578,8.90700148 122.793858,8.37720163 122.060763,8.37720163 C121.445744,8.37720163 120.923131,8.62875392 120.414893,9.4111328 C119.49185,10.8105848 118.377833,12.8496991 117.847006,13.8528268 C117.764862,14.0253199 117.682727,14.0787112 117.656032,14.0787112 C117.624198,14.0787112 117.595451,13.9678201 117.595451,13.7953296 L117.595451,10.2202071 C117.595451,8.90700148 117.068732,8.37720163 116.341797,8.37720163 C115.725751,8.37720163 115.135373,8.6061656 114.665124,9.4111328 C113.488475,11.3968557 111.536636,14.4411521 111.171115,14.9401495 C111.121825,15.0264025 111.062278,15.0828661 111.002729,15.1095625 C110.953439,15.1095625 110.920584,15.055144 110.920584,14.9165346 L110.920584,10.2202071 C110.920584,8.90700148 110.39181,8.37720163 109.662823,8.37720163 C108.654559,8.37720163 108.100118,9.3033247 107.734597,9.88651524 C107.232519,10.6966163 106.566162,11.7880451 106.033282,12.7952806 C105.672896,13.4688253 105.364872,14.0787112 105.252957,14.0787112 C105.196485,14.0787112 105.196485,13.8251047 105.196485,13.3517765 L105.196485,9.61032115 C106.958378,7.65129364 108.043646,5.25179304 108.043646,2.62640868 C108.043646,1.11504159 107.375236,0.28132537 106.338225,0.28132537 C104.414106,0.28132537 102.935594,3.29892598 102.935594,6.87096824 L102.935594,9.77562691 C102.039247,10.3352024 101.201425,10.6083163 100.166466,10.8105848 C99.6397466,9.24993402 98.5216217,8.43880624 97.6334884,8.46036794 C96.7617828,8.49014305 96.1498439,9.02405039 96.1498439,9.91834435 C96.1498439,11.3968557 97.5975531,12.0108486 98.8850897,12.0108486 L99.2506107,12.0108486 C99.3019413,12.292176 99.3019413,12.6001997 99.3019413,12.9061692 C99.3019413,14.2768722 98.4949202,15.641415 96.9856065,15.641415 C95.4208484,15.641415 94.5039672,14.1331284 94.5039672,12.4030646 C94.5039672,11.0888325 94.8941289,10.0015107 95.531737,9.24993402 C95.7822622,8.96860622 95.9793973,8.71705393 95.9793973,8.5404539 C95.9793973,8.41005748 95.7822622,8.37720163 95.6169564,8.37720163 C94.5542771,8.37720163 92.2102202,9.80745602 89.414397,12.6001997 C89.1690049,10.364978 88.8866504,8.18417372 88.8866504,6.0608672 C88.8866504,3.68806188 89.3610057,1.67256346 89.4729214,1.0914264 C89.5283605,0.731039268 89.5591744,0.504128901 89.5591744,0.339849888 C89.5591744,0.114992914 89.4452083,-2.40785312e-06 89.1433435,-2.40785312e-06 C86.8803987,-2.40785312e-06 81.9089044,3.60489569 81.9089044,8.9953015 C81.9089044,11.1986941 82.383261,12.7665326 83.221083,14.1331284 C82.9089534,14.07871 82.6635613,14.07871 82.4345981,14.07871 C81.5444106,14.07871 80.7035072,14.3004858 80.181922,14.4144545 L80.181922,13.8528255 C80.181922,12.6566699 79.8985404,11.0066917 79.3944087,10.4471162 C79.334861,10.3896189 79.251692,10.3649769 79.1736586,10.3649769 C78.9436683,10.3649769 78.6685011,10.4727854 78.3625316,10.6421977 C78.0237057,10.8105837 77.6889869,10.9799964 77.6889869,11.0888314 C77.6889869,11.1422214 77.6889869,11.1986928 77.7731857,11.3373033 C77.9703208,11.6237649 78.5021733,12.1771802 78.6941741,13.4934661 C77.7423834,12.5427012 76.6581409,12.1207088 75.2391809,12.1207088 C73.5604542,12.1207088 73.0552966,12.8722856 73.0552966,13.6310497 C73.0552966,15.0828649 74.9824955,15.8087737 77.4158778,15.8087737 C77.8614852,15.8087737 78.3625368,15.724575 78.8625613,15.6106115 C78.8625613,16.0582718 78.919034,16.454595 78.919034,16.7872608 C78.919034,17.2626432 79.0001449,17.627137 79.31125,17.627137 C79.7845794,17.627137 80.0659068,16.6732921 80.1192982,15.3077221 C80.9848436,15.0828649 81.8801642,14.889837 82.636874,14.889837 C82.9982878,14.889837 83.4500553,14.9401469 83.8925825,15.0263947 L83.8925825,15.026396 Z M78.3912873,14.7471216 C77.9210393,14.8025607 77.6345775,14.8025607 77.136606,14.8025607 C76.0441516,14.8025607 75.2391835,14.3815954 75.2391835,13.7727366 C75.2391835,13.3825736 75.4322114,13.1556634 75.9907603,13.1556634 C76.8860808,13.1556634 77.6078825,13.7727366 78.3912873,14.7471164 L78.3912873,14.7471216 Z" id="Fill-4"></path>
        </g>
    </g>
</svg>