<?xml version="1.0" encoding="utf-8"?>
<svg width="470" height="115" xmlns="http://www.w3.org/2000/svg" xmlns:svg="http://www.w3.org/2000/svg" xmlns:se="http://svg-edit.googlecode.com" data-name="Layer 1">
    <defs>
        <style>
            .cls-2 {
                fill: #157d96;
            }
        </style>
    </defs>
    <title>MSCA_logo</title>
    <g class="layer">
        <title>Layer 1</title>
        <g id="svg_1">
            <path class="cls-2" d="m98.76,111l0,-65l-24.13,65l-14.57,0l-24.13,-65l0,65l-32.71,0l0,-108l45.18,0l18.95,51.81l18.94,-51.81l45.18,0l0,108l-32.71,0z" id="svg_2"/>
            <path class="cls-2" d="m190.89,112.92q-17.33,0 -29.39,-4.7a68.19,68.19 0 0 1 -20.81,-12.47l17,-24.29a54.64,54.64 0 0 0 15,9.88a47,47 0 0 0 19.83,4a24.78,24.78 0 0 0 8.34,-1.3q3.64,-1.29 3.64,-4.53q0,-2.59 -4.45,-3.81t-11.17,-2.35q-6.72,-1.13 -14.49,-3a55.36,55.36 0 0 1 -14.49,-5.67a33,33 0 0 1 -11.17,-10.36q-4.46,-6.56 -4.45,-17.24a32.93,32.93 0 0 1 11.33,-24.77a42.57,42.57 0 0 1 14,-8a57.69,57.69 0 0 1 19.51,-3a81.52,81.52 0 0 1 24.88,3.77a62.36,62.36 0 0 1 20.89,11.33l-17.45,23.16a52,52 0 0 0 -15.54,-8a53.48,53.48 0 0 0 -16.19,-2.67q-4.86,0 -6.56,1.38a4.3,4.3 0 0 0 -1.7,3.48q0,2.59 4.46,3.89t11.09,2.49q6.66,1.21 14.53,3.16a58.18,58.18 0 0 1 14.57,5.7a33.53,33.53 0 0 1 11.12,10q4.46,6.31 4.47,16.35a37,37 0 0 1 -3.26,15.87a32.94,32.94 0 0 1 -9.28,11.78a41.39,41.39 0 0 1 -14.72,7.37a70.52,70.52 0 0 1 -19.54,2.55z" id="svg_3"/>
            <path class="cls-2" d="m301.8,112.92a67.35,67.35 0 0 1 -23.56,-4a55.82,55.82 0 0 1 -18.86,-11.42a52.86,52.86 0 0 1 -12.47,-17.65a55.75,55.75 0 0 1 -4.53,-22.75a55.77,55.77 0 0 1 4.53,-22.75a52.92,52.92 0 0 1 12.47,-17.65a55.91,55.91 0 0 1 18.86,-11.42a67.35,67.35 0 0 1 23.56,-4a56.13,56.13 0 0 1 18.71,2.72a52.86,52.86 0 0 1 14,7.29a44.31,44.31 0 0 1 10,10.12a66.32,66.32 0 0 1 6.4,11.17l-28.22,13.15a23,23 0 0 0 -7.77,-11a24.44,24.44 0 0 0 -6.15,-3.4a19.43,19.43 0 0 0 -7,-1.3a26.62,26.62 0 0 0 -10.69,2.1a25.3,25.3 0 0 0 -8.34,5.75a25,25 0 0 0 -5.34,8.58a31.13,31.13 0 0 0 0,21.21a25,25 0 0 0 5.34,8.58a25.26,25.26 0 0 0 8.34,5.75a26.58,26.58 0 0 0 10.69,2.1a19.38,19.38 0 0 0 7,-1.3a24.29,24.29 0 0 0 6.15,-3.4a23,23 0 0 0 4.78,-4.94a20.52,20.52 0 0 0 3,-6.07l28.17,13a69.5,69.5 0 0 1 -6.4,11a46.4,46.4 0 0 1 -9.88,10.2a51.47,51.47 0 0 1 -14,7.45a55.36,55.36 0 0 1 -18.79,2.88z" id="svg_4"/>
            <path class="cls-2" d="m431.5,111l-3.89,-12.63l-38.85,0l-3.89,12.63l-37.08,0l39.83,-108l41.13,0l39.83,108l-37.08,0zm-23.31,-76l-10.69,34.85l21.37,0l-10.68,-34.85z" id="svg_5"/>
        </g>
    </g>
</svg>