<?xml version="1.0" encoding="UTF-8"?>
<svg width="154px" height="115px" viewBox="0 0 154 115" version="1.1" xmlns="http://www.w3.org/2000/svg" xmlns:xlink="http://www.w3.org/1999/xlink">
    <!-- Generator: Sketch 43.2 (39069) - http://www.bohemiancoding.com/sketch -->
    <title>roche</title>
    <desc>Created with Sketch.</desc>
    <defs>
        <polygon id="path-1" points="0 6.41876338 0 12.5542535 153.709352 12.5542535 153.709352 6.41876338 153.709352 0.283273239 0 0.283273239"></polygon>
    </defs>
    <g id="Page-1" stroke="none" stroke-width="1" fill="none" fill-rule="evenodd">
        <g id="roche">
            <g id="Group-22" transform="translate(0.000000, 101.943662)">
                <mask id="mask-2" fill="white">
                    <use xlink:href="#path-1"></use>
                </mask>
                <g id="Clip-2"></g>
                <path d="M3.81789859,1.69790423 L3.09821972,1.79941408 C2.56203944,1.86708732 2.51258592,2.05492394 2.61279437,2.87220845 L3.53375775,10.1453465 L3.56672676,10.1453465 L7.71995493,1.57774085 L8.10517183,1.57774085 L9.56231549,10.1453465 L9.59528451,10.1453465 C10.6507268,7.86310986 12.2249972,4.03046197 12.777662,2.68523944 C13.061369,2.00416901 12.9442423,1.8328169 12.4258479,1.78206197 L11.6888169,1.69790423 L11.7725408,1.30531268 L15.2889465,1.30531268 L15.2052225,1.69790423 C14.1506479,1.81589859 14.1172451,1.91827606 13.4470197,3.17890704 C13.0787211,3.87732958 11.2532789,7.79413521 9.07689014,12.4956901 L8.6244338,12.4956901 L7.16729014,4.03046197 L7.13388732,4.03046197 L2.96374085,12.4956901 L2.51258592,12.4956901 L1.35650141,3.46738592 C1.1552169,1.85060282 1.08797746,1.8328169 0,1.69790423 L0.0837239437,1.30531268 L3.90162254,1.30531268 L3.81789859,1.69790423" id="Fill-1" fill="#595A59" mask="url(#mask-2)"></path>
                <path d="M17.6158648,6.31226479 C17.6158648,5.6819493 17.1295718,5.47806197 16.7786254,5.47806197 C16.5782085,5.47806197 16.3270366,5.54573521 16.1925577,5.63119437 C15.6732958,5.92097465 14.8690254,6.77252958 14.5679662,8.66260845 C16.8957521,7.96548732 17.6158648,7.23192676 17.6158648,6.31226479 Z M18.4869408,10.6390141 C16.7955437,12.3763944 15.4047718,12.5802817 14.8356225,12.5802817 C14.1996676,12.5802817 13.1116901,12.1035324 13.1116901,10.0941577 C13.1116901,8.54331268 13.8148845,6.78901408 15.0533915,5.81903099 C15.7908563,5.23947042 16.7955437,4.77877183 17.5152225,4.77877183 C18.3693803,4.77877183 18.9220451,5.3592 18.9220451,6.05718873 C18.9220451,7.6076 16.0914817,8.69731268 14.4846761,9.17449577 C14.4677577,9.27687324 14.4334873,9.49811268 14.4334873,9.58270423 C14.4334873,10.4685296 14.6182873,11.6272169 15.7066986,11.6272169 C16.3270366,11.6272169 17.1803268,11.3196507 18.2349014,10.2980451 L18.4869408,10.6390141 L18.4869408,10.6390141 Z" id="Fill-3" fill="#595A59" mask="url(#mask-2)"></path>
                <path d="M29.1168451,1.30531268 L29.0335549,1.69790423 C27.6766197,1.79941408 27.5096056,1.91827606 27.1577915,3.77495211 L26.0190592,9.90675493 C25.6668113,11.7629972 25.7848056,11.882293 27.1751437,11.9846704 L27.0905521,12.3763944 L22.7533915,12.3763944 L22.8379831,11.9846704 C24.1936169,11.882293 24.3445803,11.7629972 24.6963944,9.90675493 L25.834693,3.77495211 C26.186507,1.91827606 26.0862986,1.79941408 24.6963944,1.69790423 L24.7801183,1.30531268 L29.1168451,1.30531268" id="Fill-4" fill="#595A59" mask="url(#mask-2)"></path>
                <path d="M28.9008113,12.5802817 C29.1181465,11.677538 29.2691099,10.8945239 29.5202817,9.78789296 L30.1401859,6.97771831 C30.2907155,6.3291831 30.3410366,6.02335211 30.2069915,6.02335211 C30.0226254,6.02335211 29.3693183,6.44891268 28.9511324,6.87534085 L28.7672,6.53350423 C29.6881634,5.58000563 30.8767831,4.77877183 31.262,4.77877183 C31.7144563,4.77877183 31.6637014,5.3752507 31.4459324,6.31226479 L31.0776338,7.87959437 L31.1283887,7.87959437 C32.518293,6.17691831 33.7910704,5.32406197 34.5276676,4.98482817 C34.8625634,4.83039437 35.1302197,4.77877183 35.2976676,4.77877183 C35.5657577,4.77877183 36.1188563,4.95012394 35.6998028,6.65366761 C35.3983099,7.89651268 35.0803324,9.27687324 34.7623549,10.6728507 C34.6447944,11.2020901 34.6109577,11.3886254 34.7285183,11.3886254 C34.8794817,11.3886254 35.5158704,10.9964676 36.000862,10.6212282 L36.1852282,10.9621972 C35.3475549,11.8133183 33.9576507,12.5802817 33.723831,12.5802817 C33.288293,12.5802817 33.2206197,12.1720732 33.4388225,11.2688958 L34.4096732,7.18160563 C34.5944732,6.39815775 34.6951155,5.85330141 34.243093,5.85330141 C33.3715831,5.85330141 31.3960451,8.03316056 30.8767831,8.98665915 C30.7592225,9.31027606 30.3245521,11.1843042 30.2234761,12.1204507 L28.9008113,12.5802817" id="Fill-5" fill="#595A59" mask="url(#mask-2)"></path>
                <path d="M37.639769,12.5802817 C37.857538,11.677538 38.0072,10.8945239 38.2588056,9.78789296 L38.8787099,6.97771831 C39.0296732,6.3291831 39.0795606,6.02335211 38.9450817,6.02335211 C38.7615831,6.02335211 38.1078423,6.44891268 37.6896563,6.87534085 L37.5048563,6.53350423 C38.4262535,5.58000563 39.615307,4.77877183 40.0009577,4.77877183 C40.4525465,4.77877183 40.403093,5.3752507 40.1848901,6.31226479 L39.8161577,7.87959437 L39.8669127,7.87959437 C41.2568169,6.17691831 42.5291606,5.32406197 43.2661915,4.98482817 C43.6006535,4.83039437 43.8687437,4.77877183 44.0361915,4.77877183 C44.3047155,4.77877183 44.8569465,4.95012394 44.437893,6.65366761 C44.1364,7.89651268 43.8188563,9.27687324 43.5000113,10.6728507 C43.3828845,11.2020901 43.3499155,11.3886254 43.4670423,11.3886254 C43.6180056,11.3886254 44.2543944,10.9964676 44.7398197,10.6212282 L44.9237521,10.9621972 C44.0865127,11.8133183 42.6961746,12.5802817 42.4623549,12.5802817 C42.0268169,12.5802817 41.9600113,12.1720732 42.1777803,11.2688958 L43.1490648,7.18160563 C43.3325634,6.39815775 43.4332056,5.85330141 42.9811831,5.85330141 C42.1105408,5.85330141 40.134569,8.03316056 39.615307,8.98665915 C39.4977465,9.31027606 39.0630761,11.1843042 38.962,12.1204507 L37.639769,12.5802817" id="Fill-6" fill="#595A59" mask="url(#mask-2)"></path>
                <path d="M48.822338,11.9504 C48.9906535,11.9504 49.2079887,11.882293 49.3411662,11.831538 C50.0452282,11.5929465 51.183093,9.58270423 51.1505577,7.36900845 C51.1505577,6.05718873 50.6646986,5.41038873 49.827893,5.41038873 C49.6600113,5.41038873 49.4257577,5.47806197 49.2747944,5.54573521 C48.7550986,5.76784225 47.4996732,7.1304169 47.4996732,9.65081127 C47.4996732,10.9292282 47.8848901,11.9504 48.822338,11.9504 Z M52.5066254,7.14690141 C52.5066254,8.66260845 51.8537521,10.4173408 50.7484225,11.4402479 C50.0452282,12.0866141 48.9906535,12.5802817 48.2531887,12.5802817 C46.6958366,12.5802817 46.142738,11.2519775 46.142738,10.0590197 C46.142738,7.67527324 47.3994648,6.09145915 48.5542479,5.39303662 C49.2418254,4.98482817 49.9285352,4.77877183 50.3636394,4.77877183 C51.7695944,4.77877183 52.5066254,5.73357183 52.5066254,7.14690141 L52.5066254,7.14690141 Z" id="Fill-7" fill="#595A59" mask="url(#mask-2)"></path>
                <path d="M55.351938,12.5802817 C55.3176676,11.2020901 55.2009746,7.98283944 55.1502197,7.33387042 C55.0834141,6.56820845 55.0495775,6.07497465 54.8153239,6.07497465 C54.6144732,6.07497465 54.296062,6.34653521 53.6093521,6.92566197 L53.4419042,6.61983099 C54.1785014,5.81903099 55.167138,4.77877183 55.7536394,4.77877183 C56.0881014,4.77877183 56.1883099,5.39303662 56.2724676,6.56820845 C56.3392732,7.57332958 56.4060789,9.34454648 56.4394817,10.9114423 L56.4733183,10.9114423 C57.008631,10.1956676 57.5617296,9.39573521 58.0137521,8.7320169 C58.5829014,7.89651268 59.1355662,6.94258028 59.1355662,6.27929577 C59.1355662,5.90405634 58.9850366,5.69886761 58.9850366,5.58000563 C58.9685521,5.17179718 59.3034479,4.77877183 59.7385521,4.77877183 C60.1072845,4.77877183 60.4426141,5.12017465 60.4426141,5.69886761 C60.4426141,6.19340282 60.156738,6.68707042 59.2535606,7.91386479 C58.2475718,9.29379155 56.8077803,11.3378704 55.7701239,12.5802817 L55.351938,12.5802817" id="Fill-8" fill="#595A59" mask="url(#mask-2)"></path>
                <path d="M64.2262423,5.66589859 C63.7568676,5.92097465 63.2042028,6.39815775 62.7018592,7.50478873 C62.2324845,8.52769577 62.0988732,9.73583662 62.0988732,10.3149634 C62.0988732,10.9799831 62.2324845,11.4402479 62.5517634,11.4402479 C62.8025014,11.4402479 63.5056958,10.9292282 64.158569,10.2134535 C64.5602704,9.77010704 65.1797408,9.07255211 65.4482648,8.52769577 C65.6656,8.0847831 66.0508169,6.3291831 66.1015718,5.6819493 C65.8165634,5.58000563 65.5146366,5.49498028 64.9459211,5.49498028 C64.6947493,5.49498028 64.427093,5.56352113 64.2262423,5.66589859 Z M65.4309127,9.39573521 L65.3979437,9.39573521 C64.6947493,10.2980451 63.9243155,11.0984113 63.1039944,11.7803493 C62.8189859,12.0189408 61.9656958,12.5802817 61.6971718,12.5802817 C61.3284394,12.5802817 60.7254535,12.2397465 60.7254535,10.7747944 C60.7254535,9.02136338 61.5132394,7.16468732 62.5673803,6.21075493 C63.4388901,5.42730704 64.7784732,4.77877183 65.8334817,4.77877183 C66.1015718,4.77877183 66.3857127,4.83039437 66.7206085,4.89893521 C66.9214592,4.95012394 67.1899831,5.00087887 67.3743493,5.00087887 L67.4572056,5.06941972 C67.0884732,6.8063662 66.6698535,8.7320169 66.3523099,10.6728507 C66.2681521,11.2020901 66.2347493,11.4402479 66.3857127,11.4402479 C66.5366761,11.4402479 67.1400958,10.9964676 67.6415718,10.6212282 L67.8255042,10.9621972 C66.9713465,11.8133183 65.5983606,12.5802817 65.3480563,12.5802817 C65.1467718,12.5802817 64.8287944,12.3933127 64.9958085,11.5755944 L65.4309127,9.39573521 L65.4309127,9.39573521 Z" id="Fill-9" fill="#595A59" mask="url(#mask-2)"></path>
                <path d="M72.6129521,10.5028 C72.0767718,11.2350592 70.5697408,12.5802817 69.7819549,12.5802817 C69.4800282,12.5802817 69.1633521,11.9846704 69.4483606,10.6728507 L70.4860169,5.80211268 L69.1464338,5.80211268 L69.0288732,5.59735775 L69.4978141,5.1891493 L70.6361127,5.1891493 L70.9540901,3.89468169 L72.1934648,2.87220845 L72.3444282,2.97415211 L71.8082479,5.1891493 L73.952969,5.1891493 L73.4666761,5.71665352 L71.6755042,5.80211268 L70.7033521,10.2811268 C70.536338,11.0641408 70.6040113,11.4402479 70.7705915,11.4402479 C71.1549408,11.4402479 71.9592113,10.6390141 72.3444282,10.2811268 L72.6129521,10.5028" id="Fill-10" fill="#595A59" mask="url(#mask-2)"></path>
                <path d="M78.2220225,6.31226479 C78.2220225,5.6819493 77.7357296,5.47806197 77.3847831,5.47806197 C77.1839324,5.47806197 76.9323268,5.54573521 76.7987155,5.63119437 C76.2785859,5.92097465 75.4756169,6.77252958 75.1741239,8.66260845 C77.5019099,7.96548732 78.2220225,7.23192676 78.2220225,6.31226479 Z M79.0913634,10.6390141 C77.4012676,12.3763944 76.0113634,12.5802817 75.4409127,12.5802817 C74.8053915,12.5802817 73.7174141,12.1035324 73.7174141,10.0941577 C73.7174141,8.54331268 74.4206085,6.78901408 75.6595493,5.81903099 C76.3961465,5.23947042 77.4012676,4.77877183 78.1209465,4.77877183 C78.9751042,4.77877183 79.5286366,5.3592 79.5286366,6.05718873 C79.5286366,7.6076 76.6980732,8.69731268 75.0908338,9.17449577 C75.0743493,9.27687324 75.0405127,9.49811268 75.0405127,9.58270423 C75.0405127,10.4685296 75.2235775,11.6272169 76.3132901,11.6272169 C76.9323268,11.6272169 77.7860507,11.3196507 78.8419268,10.2980451 L79.0913634,10.6390141 L79.0913634,10.6390141 Z" id="Fill-11" fill="#595A59" mask="url(#mask-2)"></path>
                <path d="M92.9544,6.19340282 L93.4233408,3.77495211 C93.7755887,1.91827606 93.6575944,1.79941408 92.2676901,1.69790423 L92.3522817,1.30531268 L96.6716563,1.30531268 L96.5883662,1.69790423 C95.231431,1.79941408 95.0809014,1.91827606 94.7303887,3.77495211 L93.5916563,9.90675493 C93.2398423,11.7629972 93.3409183,11.882293 94.7303887,11.9846704 L94.646231,12.3763944 L90.3255549,12.3763944 L90.4088451,11.9846704 C91.7666479,11.882293 91.9163099,11.7629972 92.2676901,9.90675493 L92.8381408,6.87534085 L87.1774479,6.87534085 L86.6082986,9.90675493 C86.2569183,11.7629972 86.3736113,11.882293 87.7635155,11.9846704 L87.6802254,12.3763944 L83.3430648,12.3763944 L83.4263549,11.9846704 C84.7828563,11.882293 84.9503042,11.7629972 85.3021183,9.90675493 L86.4412845,3.77495211 C86.7926648,1.91827606 86.675538,1.79941408 85.2856338,1.69790423 L85.3684901,1.30531268 L89.7056507,1.30531268 L89.6227944,1.69790423 C88.2658592,1.79941408 88.1157634,1.91827606 87.7635155,3.77495211 L87.2941408,6.19340282 L92.9544,6.19340282" id="Fill-12" fill="#595A59" mask="url(#mask-2)"></path>
                <path d="M100.740293,6.31226479 C100.740293,5.6819493 100.254434,5.47806197 99.9030535,5.47806197 C99.7022028,5.47806197 99.4514648,5.54573521 99.3165521,5.63119437 C98.7977239,5.92097465 97.9938873,6.77252958 97.6919606,8.66260845 C100.02018,7.96548732 100.740293,7.23192676 100.740293,6.31226479 Z M101.610935,10.6390141 C99.9191042,12.3763944 98.5296338,12.5802817 97.9600507,12.5802817 C97.3240958,12.5802817 96.2356845,12.1035324 96.2356845,10.0941577 C96.2356845,8.54331268 96.9388789,6.78901408 98.1773859,5.81903099 C98.9148507,5.23947042 99.9191042,4.77877183 100.639217,4.77877183 C101.493375,4.77877183 102.046907,5.3592 102.046907,6.05718873 C102.046907,7.6076 99.2159099,8.69731268 97.6086704,9.17449577 C97.5908845,9.27687324 97.5579155,9.49811268 97.5579155,9.58270423 C97.5579155,10.4685296 97.7418479,11.6272169 98.8311268,11.6272169 C99.4514648,11.6272169 100.305623,11.3196507 101.358896,10.2980451 L101.610935,10.6390141 L101.610935,10.6390141 Z" id="Fill-13" fill="#595A59" mask="url(#mask-2)"></path>
                <path d="M106.063054,5.66589859 C105.594113,5.92097465 105.041882,6.39815775 104.539104,7.50478873 C104.071031,8.52769577 103.936986,9.73583662 103.936986,10.3149634 C103.936986,10.9799831 104.071031,11.4402479 104.388575,11.4402479 C104.640614,11.4402479 105.342073,10.9292282 105.995814,10.2134535 C106.398817,9.77010704 107.016986,9.07255211 107.28551,8.52769577 C107.502845,8.0847831 107.887628,6.3291831 107.938817,5.6819493 C107.653808,5.58000563 107.352315,5.49498028 106.783166,5.49498028 C106.532428,5.49498028 106.263904,5.56352113 106.063054,5.66589859 Z M107.268592,9.39573521 L107.235623,9.39573521 C106.532428,10.2980451 105.761561,11.0984113 104.941673,11.7803493 C104.656665,12.0189408 103.802507,12.5802817 103.533983,12.5802817 C103.165685,12.5802817 102.563566,12.2397465 102.563566,10.7747944 C102.563566,9.02136338 103.350051,7.16468732 104.405059,6.21075493 C105.275701,5.42730704 106.615718,4.77877183 107.670293,4.77877183 C107.938817,4.77877183 108.222958,4.83039437 108.557854,4.89893521 C108.759572,4.95012394 109.027228,5.00087887 109.211161,5.00087887 L109.294451,5.06941972 C108.927454,6.8063662 108.507966,8.7320169 108.190423,10.6728507 C108.106699,11.2020901 108.073296,11.4402479 108.222958,11.4402479 C108.373921,11.4402479 108.977341,10.9964676 109.479685,10.6212282 L109.662749,10.9621972 C108.809459,11.8133183 107.435172,12.5802817 107.184868,12.5802817 C106.984017,12.5802817 106.665606,12.3933127 106.833054,11.5755944 L107.268592,9.39573521 L107.268592,9.39573521 Z" id="Fill-14" fill="#595A59" mask="url(#mask-2)"></path>
                <path d="M113.831161,10.6728507 C113.127532,11.5755944 111.519425,12.5802817 111.235285,12.5802817 C110.900389,12.5802817 110.664834,12.1885577 110.934225,10.8776056 L112.708479,2.1403831 C112.859442,1.39077183 112.826039,1.28796056 112.307211,1.28796056 L111.451752,1.28796056 L111.451752,0.981695775 C112.809555,0.675430986 113.915318,0.283273239 114.048496,0.283273239 C114.232428,0.283273239 114.249346,0.573053521 114.164755,0.981695775 L112.123279,10.8264169 C112.039555,11.2020901 112.055172,11.3886254 112.172732,11.3886254 C112.373149,11.3886254 113.194338,10.7409577 113.647228,10.3327493 L113.831161,10.6728507" id="Fill-15" fill="#595A59" mask="url(#mask-2)"></path>
                <path d="M118.568287,10.5028 C118.032975,11.2350592 116.525076,12.5802817 115.737724,12.5802817 C115.437099,12.5802817 115.11782,11.9846704 115.402394,10.6728507 L116.440918,5.80211268 L115.100901,5.80211268 L114.984642,5.59735775 L115.452715,5.1891493 L116.591882,5.1891493 L116.909859,3.89468169 L118.1488,2.87220845 L118.301065,2.97415211 L117.764451,5.1891493 L119.908304,5.1891493 L119.422445,5.71665352 L117.629972,5.80211268 L116.659555,10.2811268 C116.490806,11.0641408 116.558479,11.4402479 116.724625,11.4402479 C117.112011,11.4402479 117.913679,10.6390141 118.301065,10.2811268 L118.568287,10.5028" id="Fill-16" fill="#595A59" mask="url(#mask-2)"></path>
                <path d="M119.755606,12.5802817 C119.955589,11.7113746 120.124772,10.8433352 120.290918,9.97442817 L121.84827,2.1403831 C121.999234,1.39077183 121.96453,1.28796056 121.446569,1.28796056 L120.559442,1.28796056 L120.559442,0.981695775 C121.815301,0.692349296 123.020839,0.283273239 123.154017,0.283273239 C123.337949,0.283273239 123.37222,0.573053521 123.288062,0.999047887 L121.899459,7.70954366 L121.932862,7.70954366 C123.204772,6.17691831 124.344372,5.39303662 125.281386,4.96790986 C125.582879,4.83039437 125.800648,4.77877183 125.98458,4.77877183 C126.23662,4.77877183 126.839172,4.95012394 126.487358,6.56820845 L125.582879,10.6728507 C125.465752,11.2020901 125.41413,11.3886254 125.582879,11.3886254 C125.733842,11.3886254 126.335961,10.9964676 126.822254,10.6212282 L127.006186,10.9621972 C126.186732,11.8133183 124.795527,12.5802817 124.561707,12.5802817 C124.160006,12.5802817 124.05893,12.1542873 124.25978,11.2519775 L125.18031,7.18160563 C125.364242,6.39815775 125.41413,5.85330141 124.930006,5.85330141 C124.05893,5.85330141 122.216569,7.86310986 121.698608,8.81660845 C121.563696,9.31027606 121.145076,11.1843042 121.044,12.1204507 L119.755606,12.5802817" id="Fill-17" fill="#595A59" mask="url(#mask-2)"></path>
                <path d="M133.18267,10.7925803 C132.094259,11.9677521 130.569876,12.5802817 129.850197,12.5802817 C128.828592,12.5802817 128.158366,11.7113746 128.158366,10.2134535 C128.158366,8.86692958 128.77827,7.06274366 129.934355,6.006 C130.619763,5.3752507 131.674772,4.77877183 132.780969,4.77877183 C133.383087,4.77877183 133.886732,5.1891493 133.886732,5.54573521 C133.886732,5.80211268 133.701499,6.05718873 133.433842,6.24372394 C133.215639,6.39815775 132.998304,6.46583099 132.830856,6.22767324 C132.546715,5.81903099 132.110744,5.54573521 131.659155,5.54573521 C131.17373,5.54573521 130.737324,5.92097465 130.351239,6.56820845 C129.850197,7.36900845 129.515735,8.66260845 129.515735,9.83908169 C129.515735,10.8433352 129.833713,11.6089972 130.686569,11.6089972 C131.624885,11.6089972 132.462558,10.8602535 132.931932,10.4685296 L133.18267,10.7925803" id="Fill-18" fill="#595A59" mask="url(#mask-2)"></path>
                <path d="M137.584901,5.66589859 C137.115527,5.92097465 136.563296,6.39815775 136.060518,7.50478873 C135.591144,8.52769577 135.457099,9.73583662 135.457099,10.3149634 C135.457099,10.9799831 135.591144,11.4402479 135.909555,11.4402479 C136.160293,11.4402479 136.863487,10.9292282 137.517228,10.2134535 C137.919797,9.77010704 138.5384,9.07255211 138.807358,8.52769577 C139.024693,8.0847831 139.409042,6.3291831 139.460231,5.6819493 C139.175223,5.58000563 138.87373,5.49498028 138.30458,5.49498028 C138.052541,5.49498028 137.785752,5.56352113 137.584901,5.66589859 Z M138.790006,9.39573521 L138.757037,9.39573521 C138.052541,10.2980451 137.282975,11.0984113 136.461786,11.7803493 C136.178513,12.0189408 135.323921,12.5802817 135.055397,12.5802817 C134.687099,12.5802817 134.08498,12.2397465 134.08498,10.7747944 C134.08498,9.02136338 134.871031,7.16468732 135.926473,6.21075493 C136.798417,5.42730704 138.137566,4.77877183 139.191707,4.77877183 C139.460231,4.77877183 139.744806,4.83039437 140.079268,4.89893521 C140.280118,4.95012394 140.548208,5.00087887 140.732575,5.00087887 L140.816732,5.06941972 C140.448868,6.8063662 140.02938,8.7320169 139.711403,10.6728507 C139.627679,11.2020901 139.59471,11.4402479 139.744806,11.4402479 C139.895335,11.4402479 140.498755,10.9964676 141.001099,10.6212282 L141.185465,10.9621972 C140.330006,11.8133183 138.957454,12.5802817 138.706282,12.5802817 C138.505431,12.5802817 138.187454,12.3933127 138.354901,11.5755944 L138.790006,9.39573521 L138.790006,9.39573521 Z" id="Fill-19" fill="#595A59" mask="url(#mask-2)"></path>
                <path d="M144.815527,6.31226479 L144.598192,7.35122254 L144.631161,7.35122254 C145.452349,5.80211268 146.507358,4.77877183 146.942896,4.77877183 C147.311194,4.77877183 147.596637,4.96790986 147.72938,5.20650141 C147.830023,5.3752507 147.830023,5.61470986 147.72938,5.80211268 C147.629172,6.006 147.477775,6.19340282 147.311194,6.31226479 C147.143746,6.41507606 146.976732,6.43199437 146.842254,6.31226479 C146.674372,6.17691831 146.45747,6.10837746 146.290023,6.10837746 C146.122141,6.10837746 145.854051,6.21075493 145.402462,6.82415211 C144.967792,7.42019718 144.682349,8.03316056 144.464146,8.68039437 C144.112332,10.3488 143.862028,11.4745183 143.810839,12.1204507 L142.455206,12.5802817 C142.672975,11.6953239 142.856907,10.7925803 143.040839,9.88983662 L143.59307,7.21587606 C143.777437,6.3291831 143.810839,6.02335211 143.677662,6.02335211 C143.493296,6.02335211 142.7888,6.50053521 142.404017,6.87534085 L142.221386,6.53350423 C143.108946,5.58000563 144.212975,4.77877183 144.631161,4.77877183 C145.016377,4.77877183 144.999893,5.3752507 144.815527,6.31226479" id="Fill-20" fill="#595A59" mask="url(#mask-2)"></path>
                <path d="M152.402738,6.31226479 C152.402738,5.6819493 151.917746,5.47806197 151.565499,5.47806197 C151.364648,5.47806197 151.114344,5.54573521 150.979431,5.63119437 C150.460603,5.92097465 149.657634,6.77252958 149.356141,8.66260845 C151.684361,7.96548732 152.402738,7.23192676 152.402738,6.31226479 Z M153.274682,10.6390141 C151.583285,12.3763944 150.19338,12.5802817 149.62293,12.5802817 C148.987408,12.5802817 147.899865,12.1035324 147.899865,10.0941577 C147.899865,8.54331268 148.601324,6.78901408 149.841566,5.81903099 C150.57773,5.23947042 151.583285,4.77877183 152.302963,4.77877183 C153.157121,4.77877183 153.709352,5.3592 153.709352,6.05718873 C153.709352,7.6076 150.88009,8.69731268 149.272851,9.17449577 C149.255932,9.27687324 149.221228,9.49811268 149.221228,9.58270423 C149.221228,10.4685296 149.405594,11.6272169 150.495307,11.6272169 C151.114344,11.6272169 151.967634,11.3196507 153.023076,10.2980451 L153.274682,10.6390141 L153.274682,10.6390141 Z" id="Fill-21" fill="#595A59" mask="url(#mask-2)"></path>
            </g>
            <path d="M43.8448845,30.095938 C43.8448845,27.0679944 42.5009634,25.5527211 39.8131211,25.5527211 L37.3777521,25.5527211 L37.3777521,34.808338 L39.9831718,34.808338 C42.5582254,34.808338 43.8448845,33.2379718 43.8448845,30.095938 Z M63.4154648,42.2116169 C63.4154648,41.0334085 63.3877014,39.4908056 63.3317408,37.5855437 C63.2198197,35.1718648 62.211662,33.9650254 60.3072676,33.9650254 C58.4614366,33.9650254 57.4528451,35.1718648 57.2845296,37.5855437 C57.2294366,39.1003831 57.2012394,40.6408169 57.2012394,42.2116169 C57.2012394,42.8302197 57.2294366,44.2600338 57.2845296,46.503662 C57.3973183,49.0253577 58.4054761,50.289893 60.3072676,50.289893 C62.0984394,50.289893 63.1083324,49.0535549 63.3317408,46.5865183 C63.3877014,45.6894141 63.4154648,44.2318366 63.4154648,42.2116169 Z M121.371521,39.2669634 C121.427048,37.8098197 121.262637,36.6580732 120.869177,35.8186648 C120.365532,34.584062 119.497493,33.9650254 118.264192,33.9650254 C116.417059,34.0240225 115.409769,35.228693 115.24102,37.5855437 L115.159465,39.2669634 L121.371521,39.2669634 Z M49.4730423,53.9924 L44.5159775,53.9924 C44.4608845,53.6536 44.4049239,52.9816394 44.3489634,51.9721803 L43.7594254,44.3155606 C43.5381859,40.7809352 42.3335155,39.0140563 40.1488845,39.0140563 L37.3777521,39.0140563 L37.3777521,53.9924 L32.5061465,53.9924 L32.5061465,21.3474366 L40.1488845,21.3474366 C45.8598986,21.3474366 48.7442535,24.2343944 48.7993465,30.0126479 C48.7993465,33.4340507 47.7647268,35.7635718 45.6920169,36.9955718 C47.5382817,38.0627268 48.5486085,40.3614479 48.7169239,43.8952056 C48.8848056,46.0264789 49.0509521,48.719093 49.2197014,51.9721803 C49.2747944,52.7014028 49.3611211,53.374231 49.4730423,53.9924 Z M68.3720958,42.2116169 C68.3720958,43.4449183 68.3447662,44.7372169 68.2892394,46.0820056 C68.1200563,48.6626986 67.3218592,50.7102479 65.8933465,52.2242197 C64.4678704,53.7390592 62.6033859,54.4960451 60.3072676,54.4960451 C57.9564901,54.4960451 56.0798592,53.7529408 54.6812789,52.2667324 C53.2805296,50.7796563 52.4957803,48.719093 52.3274648,46.0820056 C52.2168451,44.5116394 52.1613183,43.2215099 52.1613183,42.2116169 C52.2168451,40.4169746 52.271938,39.1285803 52.3274648,38.341662 C52.8311099,32.621538 55.4929239,29.7597408 60.3072676,29.7597408 C65.0131606,29.7597408 67.6728056,32.621538 68.2892394,38.341662 C68.3447662,39.296462 68.3720958,40.5865915 68.3720958,42.2116169 Z M87.775662,39.0140563 L82.8181634,39.0140563 C82.8181634,38.3971887 82.7908338,37.9204394 82.735307,37.5855437 C82.735307,35.1718648 81.7267155,33.9650254 79.7112676,33.9650254 C77.9187944,34.0240225 76.9397014,35.228693 76.7718197,37.5855437 C76.659031,38.7620169 76.6030704,40.3063549 76.6030704,42.2116169 C76.6030704,43.3902592 76.6308338,44.877769 76.6859268,46.6711099 C76.9123718,49.0817521 77.9187944,50.289893 79.7112676,50.289893 C81.5592676,50.289893 82.5669915,49.0253577 82.735307,46.503662 C82.7908338,46.2780845 82.8181634,45.9700845 82.8181634,45.5761915 L87.775662,45.5761915 C87.3258085,51.5231944 84.640569,54.4960451 79.7112676,54.4960451 C77.4160169,54.4960451 75.554569,53.7529408 74.1260563,52.2667324 C72.6953746,50.7796563 71.8997803,48.719093 71.7314648,46.0820056 C71.6763718,44.5116394 71.6477408,43.2215099 71.6477408,42.2116169 C71.6477408,40.4169746 71.6763718,39.1285803 71.7314648,38.341662 C72.2915042,32.621538 74.9511493,29.7597408 79.7112676,29.7597408 C84.8631099,29.7597408 87.5492169,32.8436451 87.775662,39.0140563 Z M106.843031,38.6778592 L106.843031,53.9924 L101.885532,53.9924 L101.885532,38.8466085 C101.885532,37.1087944 101.68902,35.9579155 101.299031,35.3983099 C100.73769,34.5562986 99.8709521,34.1628394 98.6949127,34.2179324 C96.7913859,34.276062 95.8383211,35.1428 95.8383211,36.8276901 L95.8383211,53.9924 L90.8821239,53.9924 L90.8821239,21.0966986 L95.8383211,21.0966986 L95.8383211,31.1882535 C96.9575324,30.2933183 98.3582817,29.8174366 100.040135,29.7597408 C101.607031,29.7597408 102.92102,30.1523324 103.986439,30.9379493 C105.272665,31.8354873 106.086479,32.9551324 106.423544,34.3033915 C106.701177,35.2009296 106.843031,36.6580732 106.843031,38.6778592 Z M126.24573,43.3902592 L115.159465,43.3902592 C115.159465,44.3433239 115.185927,45.3814141 115.24102,46.503662 C115.409769,49.0253577 116.417059,50.289893 118.264192,50.289893 C120.392862,50.289893 121.400586,48.8028169 121.288665,45.8277972 L126.077848,45.8277972 C125.909532,48.5776732 125.123048,50.7102479 123.724901,52.2242197 C122.323718,53.7390592 120.506085,54.4960451 118.264192,54.4960451 C115.969808,54.4960451 114.119639,53.7390592 112.721059,52.2242197 C111.32031,50.7102479 110.536862,48.6626986 110.369414,46.0820056 C110.31302,44.624862 110.285256,43.3351662 110.285256,42.2116169 C110.285256,40.5288958 110.31302,39.2392 110.369414,38.341662 C110.929887,32.621538 113.561335,29.7597408 118.264192,29.7597408 C120.616704,29.7597408 122.5224,30.6559775 123.978242,32.4510535 C125.207206,33.9650254 125.909532,35.9310197 126.077848,38.341662 C126.133375,39.1836732 126.188468,40.867262 126.24573,43.3902592 Z M148.419561,40.5288958 L117.426518,4.2664507 L36.4554873,4.2664507 L5.29109296,40.444738 L36.4554873,76.3701183 L117.426518,76.3701183 L148.419561,40.5288958 Z M153.709352,40.444738 L119.356941,80.1567831 L34.4404732,80.1567831 L0,40.3614479 L34.4404732,0.227746479 L119.356941,0.227746479 L153.709352,40.444738 L153.709352,40.444738 Z" id="Fill-23" fill="#006FAC"></path>
        </g>
    </g>
</svg>