<?xml version="1.0" encoding="UTF-8"?>
<svg width="154px" height="58px" viewBox="0 0 154 58" version="1.1" xmlns="http://www.w3.org/2000/svg" xmlns:xlink="http://www.w3.org/1999/xlink">
    <!-- Generator: Sketch 43.2 (39069) - http://www.bohemiancoding.com/sketch -->
    <title>logo_vec_zoetis_2</title>
    <desc>Created with Sketch.</desc>
    <defs>
        <polygon id="path-1" points="0 22.274663 0 44.183844 65.1179777 44.183844 65.1179777 0.365481894 0 0.365481894 0 22.274663"></polygon>
    </defs>
    <g id="Page-1" stroke="none" stroke-width="1" fill="none" fill-rule="evenodd">
        <g id="logo_vec_zoetis_2">
            <g id="Group-3" transform="translate(0.000000, 13.298050)">
                <mask id="mask-2" fill="white">
                    <use xlink:href="#path-1"></use>
                </mask>
                <g id="Clip-2"></g>
                <path d="M30.6357047,0.392935933 L30.0617437,5.02237326 L10.9331421,25.0719721 C10.9331421,25.0719721 18.606546,24.5400501 30.365883,33.4484568 C42.1252201,42.3568635 55.1375766,37.1024178 61.1062563,31.4009861 L65.1179777,35.4993593 C65.1179777,35.4993593 47.7481504,54.9200891 22.4483955,35.6778106 C22.4483955,35.6778106 16.5693705,31.2238217 12.5606518,31.2238217 C8.55193315,31.2238217 0,31.1350251 0,31.1350251 L0.712947075,27.3008969 L20.0444513,6.63015042 L5.59333148,6.63015042 L7.12732591,0.507899721 L30.2890975,0.365481894" id="Fill-1" fill="#E15B2B" mask="url(#mask-2)"></path>
            </g>
            <path d="M46.2025738,13.1358997 C46.2025738,13.1358997 33.4763398,15.4952312 31.4031309,29.7944958 C29.329493,44.0933315 44.77239,48.8832033 53.2805682,42.5203008 C61.7883175,36.1573983 65.0055877,23.5028022 57.7131086,15.7813538 C57.7131086,15.7813538 54.138507,11.8489916 46.2025738,13.1358997 Z M49.8857047,18.6074039 C53.7005292,19.8364011 55.2890028,25.5000836 53.4337103,31.2572813 C51.5784178,37.0149081 46.9824401,40.6855989 43.1676156,39.4566017 C39.3532201,38.2276045 37.7647465,32.563922 39.620039,26.8062953 C41.4749025,21.0490975 46.0713092,17.3779777 49.8857047,18.6074039 L49.8857047,18.6074039 Z" id="Fill-4" fill="#E15B2B"></path>
            <path d="M84.0775655,18.7223677 C84.0775655,18.7223677 76.5367131,15.9477939 73.4069526,26.1208022 C73.4069526,26.1208022 86.9945571,27.6144735 86.0696992,21.1408969 C86.0696992,21.1408969 85.7848635,19.2199721 84.0775655,18.7223677 Z M92.6144847,23.5598552 C90.9779666,33.5904457 72.6952925,31.5271031 72.6952925,31.5271031 C72.1264791,32.9499944 72.7665014,35.0129081 72.7665014,35.0129081 C77.8176156,44.0478607 88.2750306,37.2894485 88.2750306,37.2894485 L88.9150529,42.980585 C86.5677326,45.1859164 63.4471421,49.5965794 65.4392758,31.6695209 C67.4309805,13.7424624 82.3702674,12.7463955 82.3702674,12.7463955 C85.0024234,12.3907799 94.2505738,13.5288357 92.6144847,23.5598552 L92.6144847,23.5598552 Z" id="Fill-5" fill="#E15B2B"></path>
            <g id="Group-9" transform="translate(96.089136, 0.000000)" fill="#E15B2B">
                <path d="M1.16593872,14.0937883 C1.31135933,14.0907855 0.119682451,19.4992312 0.119682451,19.4992312 L4.3064234,19.4992312 L1.49924791,34.7937047 C1.49924791,34.7937047 -0.828768802,44.2790752 6.32858496,45.1413036 C13.4855097,46.003532 13.4855097,44.3652981 13.4855097,44.3652981 L13.6579554,38.7603844 C13.6579554,38.7603844 7.70815042,40.6847409 8.57037883,35.0798273 C9.43260724,29.4744847 11.5886072,19.4992312 11.5886072,19.4992312 L18.4624123,19.4992312 L19.8668579,13.7531866 L12.7095042,13.8394095 L14.2619443,5.64738162 C14.2619443,5.64738162 6.15613928,7.97539833 6.4148078,7.97539833 C6.67347632,7.97539833 5.55215042,13.9256323 5.55215042,13.9256323 L1.16593872,14.0937883" id="Fill-6"></path>
                <path d="M34.4042006,7.19724791 C32.984312,9.30048468 30.2921003,9.96495822 28.391337,8.68191086 C26.4905738,7.39843454 26.1010696,4.65303064 27.5213872,2.54979387 C28.9417047,0.446128134 31.6334875,-0.218345404 33.5342507,1.06513092 C35.4350139,2.34817827 35.8245181,5.09358217 34.4042006,7.19724791" id="Fill-8"></path>
            </g>
            <polyline id="Fill-10" fill="#E15B2B" points="121.8599 13.7716323 116.064524 44.3790251 123.559905 44.3790251 129.28493 13.7982284 121.8599 13.7716323"></polyline>
            <path d="M151.653967,35.2638552 C151.582758,36.0462953 151.430903,36.5318886 151.430903,36.5318886 C147.604067,49.952195 129.34756,43.666507 129.34756,43.666507 L131.540022,38.4214986 C132.696095,39.0001783 135.725476,39.6556435 135.725476,39.6556435 C143.799109,41.0853983 145.515844,34.7911309 140.408106,31.4618997 C139.867175,31.1092869 139.250747,30.7892758 138.555816,30.5160223 C137.932953,30.2710808 137.368429,29.9961114 136.849805,29.7009805 C132.692663,26.8247409 132.928596,22.9610139 133.178256,21.5685794 C133.238741,21.2335543 133.299226,21.0392312 133.299226,21.0392312 C136.820635,8.76770474 153.620791,14.5158942 153.620791,14.5158942 L151.603348,19.3113426 C150.539504,18.7824234 147.751632,18.1831532 147.751632,18.1831532 C141.130919,17.0180724 139.158089,21.461766 142.132992,24.597532 C142.850228,25.3529471 143.851014,26.0337214 145.147359,26.5403343 C150.632162,28.6843231 151.536,33.2052312 151.683994,34.7516657 C151.683994,34.7516657 151.695148,35.0956992 151.653967,35.2638552" id="Fill-11" fill="#E15B2B"></path>
        </g>
    </g>
</svg>